<svg xmlns="http://www.w3.org/2000/svg" width="25.459" height="18.487" viewBox="0 0 25.459 18.487"><defs><style>.a{fill:#b7b7b7;}</style></defs><path class="a" d="M46.075-780.513a5.845,5.845,0,0,1-4.282-1.794A5.844,5.844,0,0,1,40-786.589a6.038,6.038,0,0,1,1.432-3.978,5.783,5.783,0,0,1,3.689-2.069,7.842,7.842,0,0,1,2.719-4.585A7.513,7.513,0,0,1,52.787-799a7.217,7.217,0,0,1,5.482,2.358,7.974,7.974,0,0,1,2.213,5.656v.694a4.679,4.679,0,0,1,3.53,1.345,4.729,4.729,0,0,1,1.447,3.544,4.7,4.7,0,0,1-1.447,3.443,4.7,4.7,0,0,1-3.443,1.447H53.6a1.665,1.665,0,0,1-1.215-.521,1.665,1.665,0,0,1-.521-1.215v-7.464l-1.794,1.794a.784.784,0,0,1-.608.246.888.888,0,0,1-.608-.275.849.849,0,0,1-.26-.622.849.849,0,0,1,.26-.622l3.269-3.269a.868.868,0,0,1,.293-.2.866.866,0,0,1,.318-.058.836.836,0,0,1,.314.058.881.881,0,0,1,.289.2l3.3,3.3a.832.832,0,0,1,.26.607.833.833,0,0,1-.26.608.849.849,0,0,1-.622.26.849.849,0,0,1-.622-.26L53.6-789.713v7.464H60.57a3.037,3.037,0,0,0,2.228-.926,3.037,3.037,0,0,0,.926-2.228,3.037,3.037,0,0,0-.926-2.228,3.037,3.037,0,0,0-2.228-.926H58.747v-2.43A6.219,6.219,0,0,0,57-795.413a5.714,5.714,0,0,0-4.325-1.852,5.76,5.76,0,0,0-4.34,1.852,6.192,6.192,0,0,0-1.765,4.427h-.55a4.109,4.109,0,0,0-3.038,1.258,4.25,4.25,0,0,0-1.244,3.11,4.231,4.231,0,0,0,1.271,3.081,4.155,4.155,0,0,0,3.069,1.287h3.182a.837.837,0,0,1,.618.251.847.847,0,0,1,.25.622.831.831,0,0,1-.25.617.846.846,0,0,1-.618.246ZM52.73-788.9Z" transform="translate(-40 799)"/></svg>