<svg xmlns="http://www.w3.org/2000/svg" xmlns:xlink="http://www.w3.org/1999/xlink" width="1600" height="892" viewBox="0 0 1600 892"><defs><style>.a{fill:url(#a);}.b{clip-path:url(#b);}.c{opacity:0.201;}.d,.g{opacity:0.7;}.d{fill:url(#c);}.e,.h,.k{fill:none;}.e{stroke:#38b5e8;}.e,.f,.h,.i{stroke-width:2px;}.f,.i{fill:#fff;}.f{stroke:#a4a1fb;}.g{fill:url(#e);}.h{stroke:#54d8ff;}.i{stroke:#55d8fe;}.j{stroke:none;}</style><linearGradient id="a" y1="1" x2="1" gradientUnits="objectBoundingBox"><stop offset="0" stop-color="#5c6ccd"/><stop offset="1" stop-color="#5753b5"/></linearGradient><clipPath id="b"><rect class="a" width="1600" height="892" transform="translate(-228 218.933)"/></clipPath><linearGradient id="c" x1="0.5" x2="0.5" y2="1" gradientUnits="objectBoundingBox"><stop offset="0" stop-color="#a7a7ff"/><stop offset="1" stop-color="#fff" stop-opacity="0"/></linearGradient><linearGradient id="e" x1="0.5" x2="0.5" y2="1" gradientUnits="objectBoundingBox"><stop offset="0" stop-color="#54d8ff"/><stop offset="1" stop-color="#fff" stop-opacity="0"/></linearGradient></defs><g class="b" transform="translate(228 -218.933)"><g class="c" transform="translate(-413.878 259.537)"><path class="d" d="M330,630.111V475.361s218.824,101.5,393.664,107.877c189.058-6.178,221.8-49.617,369.057-107.877,125.842-48.56,251.339-61.888,371.795-58.456s224.859,55.889,367.144,61.264c251.009-21.658,379.074-131.158,396.033-176.892V687.664L330,687.835Z" transform="translate(-330 -299.472)"/><path class="e" d="M313,421.534s217.411,103.922,389.311,106.16S940.239,474.066,1071.9,421.672s256.833-61.335,372.069-59.574,227.262,56.666,368.853,59.58,370.655-94.907,396.127-176.438" transform="translate(-311.258 -245.24)"/><g class="f" transform="translate(752.303 168.459)"><circle class="j" cx="8.696" cy="8.696" r="8.696"/><circle class="k" cx="8.696" cy="8.696" r="7.696"/></g><g class="f" transform="translate(500.862 264.73)"><circle class="j" cx="8.696" cy="8.696" r="8.696"/><circle class="k" cx="8.696" cy="8.696" r="7.696"/></g></g><g class="c" transform="translate(-503.96 424.806)"><path class="d" d="M330,630.111V475.361s218.824,101.5,393.664,107.877c189.058-6.178,221.8-49.617,369.057-107.877,125.842-48.56,251.339-61.888,371.795-58.456s224.859,55.889,367.144,61.264c251.009-21.658,379.074-131.158,396.033-176.892V687.664L330,687.835Z" transform="translate(-330 -299.472)"/><path class="e" d="M313,421.534s217.411,103.922,389.311,106.16S940.239,474.066,1071.9,421.672s256.833-61.335,372.069-59.574,227.262,56.666,368.853,59.58,370.655-94.907,396.127-176.438" transform="translate(-311.258 -245.24)"/><g class="f" transform="translate(752.303 168.459)"><circle class="j" cx="8.696" cy="8.696" r="8.696"/><circle class="k" cx="8.696" cy="8.696" r="7.696"/></g></g><g class="c" transform="translate(-524.563 275.356)"><path class="g" d="M330,590.73V354.422S543.577,589.362,719.02,598.2c195.752-1.991,197.356-121.966,369.371-187.645,144.006-51.571,253.89,89.1,374.345,92.535s203.587-96.413,367.924-103.349c212.918,10.446,383.77,143.842,397.028,151.014v97.525L330,648.455Z" transform="translate(-328.824 -354.422)"/><path class="h" d="M312.953,279.164S533.177,518.433,705.291,520.671s230.97-140.977,369.164-189.26,258.078,92.1,373.457,93.858,225.847-105.463,367.613-102.549,303.85,84.024,393.456,148.006" transform="translate(-312.953 -277.162)"/><g class="i" transform="translate(1489.754 36.536)"><circle class="j" cx="8.696" cy="8.696" r="8.696"/><circle class="k" cx="8.696" cy="8.696" r="7.696"/></g><g class="i" transform="translate(809.417 35.95)"><circle class="j" cx="8.696" cy="8.696" r="8.696"/><circle class="k" cx="8.696" cy="8.696" r="7.696"/></g></g><g class="c" transform="translate(-523.851 444.9)"><path class="g" d="M330,590.73V354.422S543.577,589.362,719.02,598.2c195.752-1.991,197.356-121.966,369.371-187.645,144.006-51.571,253.89,89.1,374.345,92.535s203.587-96.413,367.924-103.349c212.918,10.446,383.77,143.842,397.028,151.014v97.525L330,648.455Z" transform="translate(-329.533 -354.422)"/><path class="h" d="M312.953,279.164S533.177,518.433,705.291,520.671s230.97-140.977,369.164-189.26,258.078,92.1,373.457,93.858,225.847-105.463,367.613-102.549,303.85,84.024,393.456,148.006" transform="translate(-312.953 -277.162)"/><g class="i" transform="translate(1196.605 129.325)"><circle class="j" cx="8.696" cy="8.696" r="8.696"/><circle class="k" cx="8.696" cy="8.696" r="7.696"/></g><g class="i" transform="translate(751.015 45.241)"><circle class="j" cx="8.696" cy="8.696" r="8.696"/><circle class="k" cx="8.696" cy="8.696" r="7.696"/></g></g></g></svg>