<svg xmlns="http://www.w3.org/2000/svg" width="752" height="105" viewBox="0 0 752 105"><defs><style>.a{fill:#fff;}.b,.c{stroke:none;}.c{fill:#0a1a27;}</style></defs><g class="a"><path class="b" d="M 744 104.5 L 8 104.5 C 3.864500045776367 104.5 0.5 101.135498046875 0.5 97 L 0.5 8 C 0.5 3.864500045776367 3.864500045776367 0.5 8 0.5 L 744 0.5 C 748.135498046875 0.5 751.5 3.864500045776367 751.5 8 L 751.5 97 C 751.5 101.135498046875 748.135498046875 104.5 744 104.5 Z"/><path class="c" d="M 8 1 C 4.14019775390625 1 1 4.14019775390625 1 8 L 1 97 C 1 100.8598022460938 4.14019775390625 104 8 104 L 744 104 C 747.8598022460938 104 751 100.8598022460938 751 97 L 751 8 C 751 4.14019775390625 747.8598022460938 1 744 1 L 8 1 M 8 0 L 744 0 C 748.4182739257812 0 752 3.581703186035156 752 8 L 752 97 C 752 101.4182968139648 748.4182739257812 105 744 105 L 8 105 C 3.58172607421875 105 0 101.4182968139648 0 97 L 0 8 C 0 3.581703186035156 3.58172607421875 0 8 0 Z"/></g></svg>