<svg xmlns="http://www.w3.org/2000/svg" width="752" height="173.497" viewBox="0 0 752 173.497"><defs><style>.a{fill:#fff;stroke-dasharray:8 4;}.b,.c{stroke:none;}.c{fill:#0a1a27;}</style></defs><g class="a"><path class="b" d="M8,0H744c4.418,0,8,5.918,8,13.219V160.278c0,7.3-3.582,13.219-8,13.219H8c-4.418,0-8-5.918-8-13.219V13.219C0,5.918,3.582,0,8,0Z"/><path class="c" d="M 8 3.0517578125e-05 L 16 3.0517578125e-05 L 16 1.000030517578125 L 8 1.000030517578125 L 8 3.0517578125e-05 C 8 3.0517578125e-05 8 3.0517578125e-05 8 3.0517578125e-05 Z M 20 3.0517578125e-05 L 28 3.0517578125e-05 L 28 1.000030517578125 L 20 1.000030517578125 L 20 3.0517578125e-05 Z M 32 3.0517578125e-05 L 40 3.0517578125e-05 L 40 1.000030517578125 L 32 1.000030517578125 L 32 3.0517578125e-05 Z M 44 3.0517578125e-05 L 52 3.0517578125e-05 L 52 1.000030517578125 L 44 1.000030517578125 L 44 3.0517578125e-05 Z M 56 3.0517578125e-05 L 64 3.0517578125e-05 L 64 1.000030517578125 L 56 1.000030517578125 L 56 3.0517578125e-05 Z M 68 3.0517578125e-05 L 76 3.0517578125e-05 L 76 1.000030517578125 L 68 1.000030517578125 L 68 3.0517578125e-05 Z M 80 3.0517578125e-05 L 88 3.0517578125e-05 L 88 1.000030517578125 L 80 1.000030517578125 L 80 3.0517578125e-05 Z M 92 3.0517578125e-05 L 100 3.0517578125e-05 L 100 1.000030517578125 L 92 1.000030517578125 L 92 3.0517578125e-05 Z M 104 3.0517578125e-05 L 112 3.0517578125e-05 L 112 1.000030517578125 L 104 1.000030517578125 L 104 3.0517578125e-05 Z M 116 3.0517578125e-05 L 124 3.0517578125e-05 L 124 1.000030517578125 L 116 1.000030517578125 L 116 3.0517578125e-05 Z M 128 3.0517578125e-05 L 136 3.0517578125e-05 L 136 1.000030517578125 L 128 1.000030517578125 L 128 3.0517578125e-05 Z M 140 3.0517578125e-05 L 148 3.0517578125e-05 L 148 1.000030517578125 L 140 1.000030517578125 L 140 3.0517578125e-05 Z M 152 3.0517578125e-05 L 160 3.0517578125e-05 L 160 1.000030517578125 L 152 1.000030517578125 L 152 3.0517578125e-05 Z M 164 3.0517578125e-05 L 172 3.0517578125e-05 L 172 1.000030517578125 L 164 1.000030517578125 L 164 3.0517578125e-05 Z M 176 3.0517578125e-05 L 184 3.0517578125e-05 L 184 1.000030517578125 L 176 1.000030517578125 L 176 3.0517578125e-05 Z M 188 3.0517578125e-05 L 196 3.0517578125e-05 L 196 1.000030517578125 L 188 1.000030517578125 L 188 3.0517578125e-05 Z M 200 3.0517578125e-05 L 208 3.0517578125e-05 L 208 1.000030517578125 L 200 1.000030517578125 L 200 3.0517578125e-05 Z M 212 3.0517578125e-05 L 220 3.0517578125e-05 L 220 1.000030517578125 L 212 1.000030517578125 L 212 3.0517578125e-05 Z M 224 3.0517578125e-05 L 232 3.0517578125e-05 L 232 1.000030517578125 L 224 1.000030517578125 L 224 3.0517578125e-05 Z M 236 3.0517578125e-05 L 244 3.0517578125e-05 L 244 1.000030517578125 L 236 1.000030517578125 L 236 3.0517578125e-05 Z M 248 3.0517578125e-05 L 256 3.0517578125e-05 L 256 1.000030517578125 L 248 1.000030517578125 L 248 3.0517578125e-05 Z M 260 3.0517578125e-05 L 268 3.0517578125e-05 L 268 1.000030517578125 L 260 1.000030517578125 L 260 3.0517578125e-05 Z M 272 3.0517578125e-05 L 280 3.0517578125e-05 L 280 1.000030517578125 L 272 1.000030517578125 L 272 3.0517578125e-05 Z M 284 3.0517578125e-05 L 292 3.0517578125e-05 L 292 1.000030517578125 L 284 1.000030517578125 L 284 3.0517578125e-05 Z M 296 3.0517578125e-05 L 304 3.0517578125e-05 L 304 1.000030517578125 L 296 1.000030517578125 L 296 3.0517578125e-05 Z M 308 3.0517578125e-05 L 316 3.0517578125e-05 L 316 1.000030517578125 L 308 1.000030517578125 L 308 3.0517578125e-05 Z M 320 3.0517578125e-05 L 328 3.0517578125e-05 L 328 1.000030517578125 L 320 1.000030517578125 L 320 3.0517578125e-05 Z M 332 3.0517578125e-05 L 340 3.0517578125e-05 L 340 1.000030517578125 L 332 1.000030517578125 L 332 3.0517578125e-05 Z M 344 3.0517578125e-05 L 352 3.0517578125e-05 L 352 1.000030517578125 L 344 1.000030517578125 L 344 3.0517578125e-05 Z M 356 3.0517578125e-05 L 364 3.0517578125e-05 L 364 1.000030517578125 L 356 1.000030517578125 L 356 3.0517578125e-05 Z M 368 3.0517578125e-05 L 376 3.0517578125e-05 L 376 1.000030517578125 L 368 1.000030517578125 L 368 3.0517578125e-05 Z M 380 3.0517578125e-05 L 388 3.0517578125e-05 L 388 1.000030517578125 L 380 1.000030517578125 L 380 3.0517578125e-05 Z M 392 3.0517578125e-05 L 400 3.0517578125e-05 L 400 1.000030517578125 L 392 1.000030517578125 L 392 3.0517578125e-05 Z M 404 3.0517578125e-05 L 412 3.0517578125e-05 L 412 1.000030517578125 L 404 1.000030517578125 L 404 3.0517578125e-05 Z M 416 3.0517578125e-05 L 424 3.0517578125e-05 L 424 1.000030517578125 L 416 1.000030517578125 L 416 3.0517578125e-05 Z M 428 3.0517578125e-05 L 436 3.0517578125e-05 L 436 1.000030517578125 L 428 1.000030517578125 L 428 3.0517578125e-05 Z M 440 3.0517578125e-05 L 448 3.0517578125e-05 L 448 1.000030517578125 L 440 1.000030517578125 L 440 3.0517578125e-05 Z M 452 3.0517578125e-05 L 460 3.0517578125e-05 L 460 1.000030517578125 L 452 1.000030517578125 L 452 3.0517578125e-05 Z M 464 3.0517578125e-05 L 472 3.0517578125e-05 L 472 1.000030517578125 L 464 1.000030517578125 L 464 3.0517578125e-05 Z M 476 3.0517578125e-05 L 484 3.0517578125e-05 L 484 1.000030517578125 L 476 1.000030517578125 L 476 3.0517578125e-05 Z M 488 3.0517578125e-05 L 496 3.0517578125e-05 L 496 1.000030517578125 L 488 1.000030517578125 L 488 3.0517578125e-05 Z M 500 3.0517578125e-05 L 508 3.0517578125e-05 L 508 1.000030517578125 L 500 1.000030517578125 L 500 3.0517578125e-05 Z M 512 3.0517578125e-05 L 520 3.0517578125e-05 L 520 1.000030517578125 L 512 1.000030517578125 L 512 3.0517578125e-05 Z M 524 3.0517578125e-05 L 532 3.0517578125e-05 L 532 1.000030517578125 L 524 1.000030517578125 L 524 3.0517578125e-05 Z M 536 3.0517578125e-05 L 544 3.0517578125e-05 L 544 1.000030517578125 L 536 1.000030517578125 L 536 3.0517578125e-05 Z M 548 3.0517578125e-05 L 556 3.0517578125e-05 L 556 1.000030517578125 L 548 1.000030517578125 L 548 3.0517578125e-05 Z M 560 3.0517578125e-05 L 568 3.0517578125e-05 L 568 1.000030517578125 L 560 1.000030517578125 L 560 3.0517578125e-05 Z M 572 3.0517578125e-05 L 580 3.0517578125e-05 L 580 1.000030517578125 L 572 1.000030517578125 L 572 3.0517578125e-05 Z M 584 3.0517578125e-05 L 592 3.0517578125e-05 L 592 1.000030517578125 L 584 1.000030517578125 L 584 3.0517578125e-05 Z M 596 3.0517578125e-05 L 604 3.0517578125e-05 L 604 1.000030517578125 L 596 1.000030517578125 L 596 3.0517578125e-05 Z M 608 3.0517578125e-05 L 616 3.0517578125e-05 L 616 1.000030517578125 L 608 1.000030517578125 L 608 3.0517578125e-05 Z M 620 3.0517578125e-05 L 628 3.0517578125e-05 L 628 1.000030517578125 L 620 1.000030517578125 L 620 3.0517578125e-05 Z M 632 3.0517578125e-05 L 640 3.0517578125e-05 L 640 1.000030517578125 L 632 1.000030517578125 L 632 3.0517578125e-05 Z M 644 3.0517578125e-05 L 652 3.0517578125e-05 L 652 1.000030517578125 L 644 1.000030517578125 L 644 3.0517578125e-05 Z M 656 3.0517578125e-05 L 664 3.0517578125e-05 L 664 1.000030517578125 L 656 1.000030517578125 L 656 3.0517578125e-05 Z M 668 3.0517578125e-05 L 676 3.0517578125e-05 L 676 1.000030517578125 L 668 1.000030517578125 L 668 3.0517578125e-05 Z M 680 3.0517578125e-05 L 688 3.0517578125e-05 L 688 1.000030517578125 L 680 1.000030517578125 L 680 3.0517578125e-05 Z M 692 3.0517578125e-05 L 700 3.0517578125e-05 L 700 1.000030517578125 L 692 1.000030517578125 L 692 3.0517578125e-05 Z M 704 3.0517578125e-05 L 712 3.0517578125e-05 L 712 1.000030517578125 L 704 1.000030517578125 L 704 3.0517578125e-05 Z M 716 3.0517578125e-05 L 724 3.0517578125e-05 L 724 1.000030517578125 L 716 1.000030517578125 L 716 3.0517578125e-05 Z M 728 3.0517578125e-05 L 736 3.0517578125e-05 L 736 1.000030517578125 L 728 1.000030517578125 L 728 3.0517578125e-05 Z M 740 3.0517578125e-05 L 744 3.0517578125e-05 C 744 3.0517578125e-05 744 3.0517578125e-05 744 3.0517578125e-05 C 744.0061645507812 3.0517578125e-05 744.0125732421875 9.1552734375e-05 744.0187377929688 7.62939453125e-05 C 744.0238647460938 9.1552734375e-05 744.0289306640625 0.0001068115234375 744.0341186523438 0.000152587890625 C 744.0389404296875 0.000213623046875 744.0435791015625 0.000244140625 744.0484008789062 0.000274658203125 C 744.0531005859375 0.0003204345703125 744.0581665039062 0.000335693359375 744.0629272460938 0.0004425048828125 C 744.0674438476562 0.0005035400390625 744.0724487304688 0.000518798828125 744.0770263671875 0.000640869140625 C 744.0830688476562 0.0007171630859375 744.0894775390625 0.0008544921875 744.0955200195312 0.0009613037109375 C 744.1005859375 0.0010528564453125 744.1058349609375 0.00115966796875 744.1109008789062 0.00128173828125 C 744.1159057617188 0.0013885498046875 744.12060546875 0.00152587890625 744.1256713867188 0.0016326904296875 C 744.1304931640625 0.0017547607421875 744.1351928710938 0.001861572265625 744.1400146484375 0.0020294189453125 C 744.1448974609375 0.002166748046875 744.149169921875 0.00225830078125 744.154052734375 0.00244140625 C 744.1600952148438 0.0026092529296875 744.16552734375 0.0027923583984375 744.1715698242188 0.003021240234375 C 744.177001953125 0.003204345703125 744.182373046875 0.003387451171875 744.1878051757812 0.0036163330078125 C 744.1926879882812 0.0037994384765625 744.197265625 0.00396728515625 744.2020874023438 0.004180908203125 C 744.2069702148438 0.0043792724609375 744.2120971679688 0.004608154296875 744.2169799804688 0.0048065185546875 C 744.2217407226562 0.0050201416015625 744.2265014648438 0.0052337646484375 744.2312622070312 0.005462646484375 C 744.238037109375 0.0057525634765625 744.2445678710938 0.006103515625 744.2512817382812 0.006439208984375 C 744.2561645507812 0.006683349609375 744.2607421875 0.0069427490234375 744.265625 0.0071868896484375 C 744.2703247070312 0.0074310302734375 744.2749633789062 0.0076904296875 744.2797241210938 0.007965087890625 C 744.2844848632812 0.00823974609375 744.2891845703125 0.0084991455078125 744.2940063476562 0.0088043212890625 C 744.2988891601562 0.009063720703125 744.3031616210938 0.00933837890625 744.30810546875 0.0096588134765625 C 744.3151245117188 0.01007080078125 744.3222045898438 0.01055908203125 744.3292236328125 0.0110321044921875 C 744.3338623046875 0.0113525390625 744.338134765625 0.0116119384765625 744.3428344726562 0.011962890625 C 744.3472900390625 0.01226806640625 744.3521728515625 0.0126190185546875 744.3566284179688 0.012939453125 C 744.3614501953125 0.013275146484375 744.3660278320312 0.0136260986328125 744.370849609375 0.0139923095703125 C 744.3755493164062 0.01434326171875 744.3798217773438 0.0146636962890625 744.3845825195312 0.015045166015625 C 744.3893432617188 0.015411376953125 744.3938598632812 0.0157623291015625 744.398681640625 0.0161590576171875 C 744.4053344726562 0.016754150390625 744.4122314453125 0.01727294921875 744.4188842773438 0.017852783203125 C 744.423583984375 0.01824951171875 744.4287109375 0.018707275390625 744.4334106445312 0.01910400390625 C 744.438232421875 0.0195159912109375 744.4425048828125 0.0198974609375 744.4473266601562 0.020355224609375 C 744.4517822265625 0.020751953125 744.4567260742188 0.0211944580078125 744.461181640625 0.021636962890625 C 744.4628295898438 0.02178955078125 744.4644165039062 0.021942138671875 744.466064453125 0.0220947265625 C 744.48095703125 0.0235137939453125 744.495849609375 0.024993896484375 744.5107421875 0.0265350341796875 C 744.5153198242188 0.027008056640625 744.51953125 0.0274505615234375 744.524169921875 0.0279541015625 C 744.5287475585938 0.0284271240234375 744.533203125 0.0289154052734375 744.537841796875 0.0294342041015625 C 744.5424194335938 0.029998779296875 744.5471801757812 0.0304718017578125 744.5518188476562 0.0309906005859375 C 744.5521240234375 0.0310211181640625 744.5524291992188 0.03106689453125 744.552734375 0.031097412109375 C 744.564697265625 0.032440185546875 744.5765991210938 0.0338287353515625 744.5885009765625 0.0352630615234375 C 744.5925903320312 0.0357513427734375 744.5968627929688 0.0362701416015625 744.6008911132812 0.036773681640625 C 744.6054077148438 0.03729248046875 744.6095581054688 0.0378265380859375 744.614013671875 0.03839111328125 C 744.6183471679688 0.0389862060546875 744.6232299804688 0.0395660400390625 744.6275634765625 0.0401153564453125 C 744.6283569335938 0.0402069091796875 744.6292724609375 0.0403289794921875 744.6300659179688 0.040435791015625 C 744.6461791992188 0.042510986328125 744.6619873046875 0.04461669921875 744.6781005859375 0.046844482421875 C 744.6822509765625 0.0475006103515625 744.6865234375 0.04803466796875 744.6907348632812 0.048614501953125 C 744.6951904296875 0.04925537109375 744.6997680664062 0.0499114990234375 744.7042236328125 0.0505523681640625 C 744.7042236328125 0.0505523681640625 744.7042846679688 0.0505523681640625 744.7042846679688 0.0505523681640625 C 744.7254028320312 0.0536041259765625 744.746337890625 0.0567474365234375 744.767333984375 0.06005859375 C 744.7674560546875 0.0600738525390625 744.7675170898438 0.060089111328125 744.767578125 0.060089111328125 C 745.5924682617188 0.1898193359375 746.3804321289062 0.52630615234375 747.113037109375 1.038162231445312 C 747.1134033203125 1.0384521484375 747.1138916015625 1.038787841796875 747.1143188476562 1.039077758789062 C 747.1176147460938 1.041366577148438 747.1209106445312 1.043701171875 747.1242065429688 1.045989990234375 C 747.1248168945312 1.046432495117188 747.1254272460938 1.046859741210938 747.1260375976562 1.047286987304688 C 747.1293334960938 1.049591064453125 747.1321411132812 1.051559448242188 747.1353759765625 1.053863525390625 C 747.1362915039062 1.05450439453125 747.1372680664062 1.055191040039062 747.13818359375 1.055816650390625 C 747.1411743164062 1.057952880859375 747.144287109375 1.060150146484375 747.1473388671875 1.062286376953125 C 747.1478881835938 1.06268310546875 747.1483764648438 1.06304931640625 747.1489868164062 1.063446044921875 C 747.1589965820312 1.070541381835938 747.169189453125 1.077804565429688 747.17919921875 1.0849609375 C 747.1799926757812 1.085556030273438 747.180908203125 1.086196899414062 747.1817016601562 1.0867919921875 C 747.1842651367188 1.088623046875 747.1868286132812 1.090438842773438 747.1893310546875 1.092269897460938 C 747.1910400390625 1.093460083007812 747.192626953125 1.094635009765625 747.1942749023438 1.0958251953125 C 747.1963500976562 1.097320556640625 747.19873046875 1.099029541015625 747.2008056640625 1.100540161132812 C 747.2028198242188 1.10198974609375 747.2049560546875 1.103515625 747.2069091796875 1.104949951171875 C 747.2090454101562 1.106475830078125 747.211181640625 1.108016967773438 747.2132568359375 1.109542846679688 C 747.2149047851562 1.110733032226562 747.2166748046875 1.112030029296875 747.2183227539062 1.113235473632812 C 747.2208862304688 1.115081787109375 747.2229614257812 1.1165771484375 747.2255249023438 1.118438720703125 C 747.227783203125 1.120086669921875 747.2301025390625 1.121810913085938 747.232421875 1.12347412109375 C 747.2349243164062 1.125335693359375 747.2379150390625 1.127487182617188 747.2404174804688 1.129364013671875 C 747.2434692382812 1.131576538085938 747.2464599609375 1.133773803710938 747.24951171875 1.136001586914062 C 747.2506103515625 1.136856079101562 747.2517700195312 1.1376953125 747.2529296875 1.1385498046875 C 747.2560424804688 1.140823364257812 747.2590942382812 1.143051147460938 747.2621459960938 1.145339965820312 C 747.2633056640625 1.146194458007812 747.264404296875 1.147018432617188 747.2655639648438 1.147872924804688 C 747.2686767578125 1.150161743164062 747.2716064453125 1.152313232421875 747.274658203125 1.15460205078125 C 747.2758178710938 1.15545654296875 747.2770385742188 1.156387329101562 747.2781982421875 1.157241821289062 C 747.295166015625 1.169815063476562 747.3121337890625 1.182586669921875 747.3290405273438 1.195358276367188 C 747.3292236328125 1.195526123046875 747.3295288085938 1.195755004882812 747.3297729492188 1.1959228515625 C 747.4345092773438 1.275253295898438 747.5379638671875 1.358154296875 747.6401977539062 1.44464111328125 L 746.994384765625 2.2081298828125 C 746.0465698242188 1.406539916992188 745.0391845703125 1.000030517578125 744 1.000030517578125 L 740 1.000030517578125 L 740 3.0517578125e-05 Z M 750.063720703125 4.595840454101562 C 750.5181884765625 5.467697143554688 750.905029296875 6.438507080078125 751.2106323242188 7.486251831054688 C 751.2109985351562 7.48748779296875 751.21142578125 7.4888916015625 751.2117309570312 7.4901123046875 C 751.2200927734375 7.518707275390625 751.2283935546875 7.547515869140625 751.2366333007812 7.576217651367188 C 751.2369995117188 7.577606201171875 751.2373657226562 7.578826904296875 751.23779296875 7.580230712890625 C 751.2426147460938 7.59722900390625 751.2476806640625 7.614913940429688 751.25244140625 7.6319580078125 C 751.2528076171875 7.633041381835938 751.2531127929688 7.634185791015625 751.25341796875 7.635269165039062 C 751.2564086914062 7.645889282226562 751.2592163085938 7.655899047851562 751.26220703125 7.666519165039062 C 751.2626342773438 7.668075561523438 751.2630615234375 7.669601440429688 751.2634887695312 7.671142578125 C 751.2681884765625 7.687835693359375 751.2730712890625 7.705307006835938 751.2776489257812 7.722030639648438 C 751.2782592773438 7.72406005859375 751.27880859375 7.72613525390625 751.2793579101562 7.728164672851562 C 751.2816772460938 7.736526489257812 751.2841796875 7.745590209960938 751.2864990234375 7.753982543945312 C 751.287353515625 7.757095336914062 751.2881469726562 7.759918212890625 751.2890014648438 7.763031005859375 C 751.2903442382812 7.767974853515625 751.2916259765625 7.772705078125 751.2930297851562 7.777664184570312 C 751.2940063476562 7.78125 751.2949829101562 7.784957885742188 751.2959594726562 7.788543701171875 C 751.2979736328125 7.795791625976562 751.3001708984375 7.803985595703125 751.3021240234375 7.811248779296875 C 751.302978515625 7.814361572265625 751.303955078125 7.817764282226562 751.3047485351562 7.820892333984375 C 751.306640625 7.8277587890625 751.30859375 7.835037231445312 751.3104858398438 7.8419189453125 C 751.3116455078125 7.846298217773438 751.3128051757812 7.850570678710938 751.31396484375 7.854949951171875 C 751.315185546875 7.859542846679688 751.3162231445312 7.86334228515625 751.3174438476562 7.867935180664062 C 751.3186645507812 7.872482299804688 751.3199462890625 7.8773193359375 751.3211669921875 7.881866455078125 C 751.3228149414062 7.887985229492188 751.3245239257812 7.894439697265625 751.326171875 7.90057373046875 C 751.3273315429688 7.90496826171875 751.3285522460938 7.909439086914062 751.3297119140625 7.913833618164062 C 751.3307495117188 7.91766357421875 751.3316650390625 7.921295166015625 751.3327026367188 7.925125122070312 C 751.3345336914062 7.932037353515625 751.3363647460938 7.938873291015625 751.338134765625 7.945785522460938 C 751.33935546875 7.950393676757812 751.34033203125 7.954132080078125 751.341552734375 7.958740234375 C 751.3428955078125 7.963775634765625 751.34423828125 7.968917846679688 751.3455810546875 7.97393798828125 C 751.3468627929688 7.97894287109375 751.3483276367188 7.984603881835938 751.3496704101562 7.989593505859375 C 751.3510131835938 7.994796752929688 751.3523559570312 8 751.3536987304688 8.005203247070312 C 751.354736328125 8.009048461914062 751.3557739257812 8.013107299804688 751.3567504882812 8.0169677734375 C 751.3585815429688 8.0240478515625 751.3604736328125 8.03131103515625 751.3623046875 8.038406372070312 C 751.3632202148438 8.0418701171875 751.3640747070312 8.045333862304688 751.364990234375 8.048812866210938 C 751.3665771484375 8.054962158203125 751.3681640625 8.061065673828125 751.3697509765625 8.067230224609375 C 751.3705444335938 8.0703125 751.3713989257812 8.07379150390625 751.3721923828125 8.076873779296875 C 751.3739013671875 8.083511352539062 751.3755493164062 8.090118408203125 751.3772583007812 8.096755981445312 C 751.3782348632812 8.100616455078125 751.379150390625 8.104110717773438 751.380126953125 8.107986450195312 C 751.3819580078125 8.115249633789062 751.3837890625 8.122344970703125 751.3856201171875 8.129623413085938 C 751.386474609375 8.133102416992188 751.3873901367188 8.136611938476562 751.3882446289062 8.140090942382812 C 751.3897094726562 8.145950317382812 751.3912353515625 8.151931762695312 751.3927001953125 8.157791137695312 C 751.3933715820312 8.160507202148438 751.3941650390625 8.163543701171875 751.3948364257812 8.166259765625 C 751.3967895507812 8.174026489257812 751.398681640625 8.181747436523438 751.400634765625 8.189529418945312 C 751.4014282226562 8.192626953125 751.4022216796875 8.195770263671875 751.4029541015625 8.198883056640625 C 751.4049682617188 8.20697021484375 751.4071044921875 8.215499877929688 751.4091186523438 8.223602294921875 C 751.4094848632812 8.22515869140625 751.4098510742188 8.226669311523438 751.4102172851562 8.22821044921875 C 751.4120483398438 8.235687255859375 751.4139404296875 8.2431640625 751.415771484375 8.250640869140625 C 751.4163208007812 8.252975463867188 751.4168701171875 8.255218505859375 751.41748046875 8.257553100585938 C 751.4195556640625 8.266143798828125 751.4216918945312 8.274887084960938 751.4237670898438 8.283477783203125 C 751.4241943359375 8.2850341796875 751.4246826171875 8.287094116210938 751.425048828125 8.288650512695312 C 751.42724609375 8.297561645507812 751.429443359375 8.30682373046875 751.431640625 8.315765380859375 C 751.431884765625 8.316925048828125 751.4320678710938 8.317535400390625 751.4323120117188 8.318695068359375 C 751.4343872070312 8.3271484375 751.4365234375 8.3359375 751.4385375976562 8.344390869140625 C 751.4387817382812 8.345565795898438 751.4393310546875 8.347747802734375 751.4396362304688 8.348907470703125 C 751.4417724609375 8.358016967773438 751.4439697265625 8.367019653320312 751.4461059570312 8.376144409179688 C 751.4464111328125 8.377304077148438 751.4468994140625 8.37939453125 751.4472045898438 8.380569458007812 C 751.45166015625 8.399444580078125 751.4561157226562 8.418243408203125 751.4605712890625 8.437149047851562 C 751.4608154296875 8.438323974609375 751.4611206054688 8.439651489257812 751.46142578125 8.440826416015625 C 751.4636840820312 8.450439453125 751.4658813476562 8.459869384765625 751.4681396484375 8.469497680664062 C 751.4683227539062 8.470291137695312 751.4683227539062 8.470306396484375 751.468505859375 8.471099853515625 C 751.4707641601562 8.480712890625 751.472900390625 8.4901123046875 751.4751586914062 8.499755859375 C 751.4752197265625 8.500137329101562 751.4754638671875 8.5009765625 751.4755249023438 8.501358032226562 C 751.477783203125 8.51116943359375 751.4800415039062 8.520950317382812 751.4822998046875 8.53076171875 C 751.4824829101562 8.53155517578125 751.4826049804688 8.532012939453125 751.4827880859375 8.532806396484375 C 751.4896850585938 8.563034057617188 751.4965209960938 8.593093872070312 751.5033569335938 8.623428344726562 C 751.5035400390625 8.624221801757812 751.5037231445312 8.625106811523438 751.50390625 8.625900268554688 C 751.7632446289062 9.782470703125 751.927490234375 11.01547241210938 751.9808959960938 12.29873657226562 L 750.9818115234375 12.34024047851562 C 750.8687744140625 9.62432861328125 750.2446899414062 7.10614013671875 749.1768798828125 5.058135986328125 L 750.063720703125 4.595840454101562 Z M 751 16.29862976074219 L 752 16.29862976074219 C 752 16.29862976074219 752 24.29862976074219 752 24.29862976074219 L 751 24.29862976074219 L 751 16.29862976074219 Z M 751 28.29862976074219 L 752 28.29862976074219 C 752 28.29862976074219 752 36.29862976074219 752 36.29862976074219 L 751 36.29862976074219 L 751 28.29862976074219 Z M 751 40.29862976074219 L 752 40.29862976074219 C 752 40.29862976074219 752 48.29863739013672 752 48.29863739013672 L 751 48.29863739013672 L 751 40.29862976074219 Z M 751 52.29863739013672 L 752 52.29863739013672 C 752 52.29863739013672 752 60.29863739013672 752 60.29863739013672 L 751 60.29863739013672 L 751 52.29863739013672 Z M 751 64.29863739013672 L 752 64.29863739013672 C 752 64.29863739013672 752 72.29863739013672 752 72.29863739013672 L 751 72.29863739013672 L 751 64.29863739013672 Z M 751 76.29863739013672 L 752 76.29863739013672 C 752 76.29863739013672 752 84.29863739013672 752 84.29863739013672 L 751 84.29863739013672 L 751 76.29863739013672 Z M 751 88.29863739013672 L 752 88.29863739013672 C 752 88.29863739013672 752 96.29863739013672 752 96.29863739013672 L 751 96.29863739013672 L 751 88.29863739013672 Z M 751 100.2986373901367 L 752 100.2986373901367 C 752 100.2986373901367 752 108.2986373901367 752 108.2986373901367 L 751 108.2986373901367 L 751 100.2986373901367 Z M 751 112.2986297607422 L 752 112.2986297607422 C 752 112.2986297607422 752 120.2986297607422 752 120.2986297607422 L 751 120.2986297607422 L 751 112.2986297607422 Z M 751 124.2986297607422 L 752 124.2986297607422 C 752 124.2986297607422 752 132.2986297607422 752 132.2986297607422 L 751 132.2986297607422 L 751 124.2986297607422 Z M 751 136.2986297607422 L 752 136.2986297607422 C 752 136.2986297607422 752 144.2986297607422 752 144.2986297607422 L 751 144.2986297607422 L 751 136.2986297607422 Z M 751 148.2986297607422 L 752 148.2986297607422 C 752 148.2986297607422 752 156.2986297607422 752 156.2986297607422 L 751 156.2986297607422 L 751 148.2986297607422 Z M 751 160.2977294921875 L 752 160.2986297607422 C 751.9998779296875 160.4050903320312 751.9990234375 160.5111389160156 751.9974365234375 160.6169891357422 C 751.9973754882812 160.6191101074219 751.9973754882812 160.6213226318359 751.997314453125 160.6234436035156 C 751.9971313476562 160.6353912353516 751.9969482421875 160.6473083496094 751.9967651367188 160.6592559814453 C 751.9967041015625 160.6603088378906 751.9967041015625 160.6617126464844 751.9967041015625 160.6627655029297 C 751.99658203125 160.6694030761719 751.9964599609375 160.6761016845703 751.996337890625 160.6827392578125 C 751.996337890625 160.6836242675781 751.9962768554688 160.6843872070312 751.9962768554688 160.6852722167969 C 751.9960327148438 160.6972198486328 751.995849609375 160.7096252441406 751.99560546875 160.7215576171875 C 751.9955444335938 160.7240295410156 751.9954833984375 160.7264251708984 751.9954223632812 160.7288970947266 C 751.9951782226562 160.7421569824219 751.9949340820312 160.7543029785156 751.99462890625 160.7675476074219 C 751.99462890625 160.7677307128906 751.99462890625 160.7678527832031 751.99462890625 160.7680358886719 C 751.9945068359375 160.7737731933594 751.994384765625 160.779052734375 751.9942626953125 160.7847900390625 C 751.994140625 160.7886657714844 751.9940795898438 160.7925262451172 751.9939575195312 160.7964019775391 C 751.9937744140625 160.8056793212891 751.9935302734375 160.8139190673828 751.9933471679688 160.8231964111328 C 751.9932250976562 160.8268890380859 751.9931640625 160.8302307128906 751.9930419921875 160.8339385986328 C 751.992919921875 160.8392333984375 751.9927978515625 160.8453521728516 751.9926147460938 160.8506469726562 C 751.9924926757812 160.8555755615234 751.9923706054688 160.8601226806641 751.9922485351562 160.8650512695312 C 751.9920654296875 160.8721008300781 751.9918823242188 160.8789215087891 751.99169921875 160.8859710693359 C 751.9915771484375 160.8912506103516 751.9913940429688 160.8964996337891 751.9912719726562 160.9017791748047 C 751.9911499023438 160.9061737060547 751.9910278320312 160.9103698730469 751.9909057617188 160.9147796630859 C 751.9906616210938 160.9228668212891 751.9904174804688 160.9312744140625 751.9901733398438 160.9393615722656 C 751.9900512695312 160.9428863525391 751.9899291992188 160.9467926025391 751.9898071289062 160.9503173828125 C 751.9896240234375 160.9573516845703 751.9894409179688 160.9640350341797 751.9891967773438 160.9710540771484 C 751.9890747070312 160.9741363525391 751.9889526367188 160.9783020019531 751.9888916015625 160.9813842773438 C 751.9885864257812 160.9896392822266 751.9883422851562 160.9977722167969 751.9880981445312 161.0060272216797 C 751.9879760742188 161.0095367431641 751.9878540039062 161.0129089355469 751.9877319335938 161.0164337158203 C 751.9874267578125 161.025390625 751.9871215820312 161.0346069335938 751.98681640625 161.0435485839844 C 751.9867553710938 161.0457458496094 751.9866943359375 161.0473937988281 751.9866333007812 161.0495910644531 C 751.986328125 161.0574951171875 751.9860229492188 161.0657958984375 751.9857788085938 161.0736999511719 C 751.9856567382812 161.0763244628906 751.9855346679688 161.0789031982422 751.9854736328125 161.08154296875 C 751.985107421875 161.0910034179688 751.9848022460938 161.1000366210938 751.9844360351562 161.1094970703125 C 751.984375 161.1116943359375 751.9842529296875 161.1146240234375 751.984130859375 161.1168212890625 C 751.9838256835938 161.1257629394531 751.9834594726562 161.1349792480469 751.9830932617188 161.1439056396484 C 751.9830932617188 161.1447906494141 751.9830322265625 161.1457824707031 751.9830322265625 161.1466522216797 C 751.9826049804688 161.1568145751953 751.982177734375 161.1670074462891 751.9818115234375 161.1771545410156 C 751.981689453125 161.1789093017578 751.981689453125 161.1803131103516 751.9815673828125 161.1820678710938 C 751.9807739257812 161.2027130126953 751.9798583984375 161.2235412597656 751.9789428710938 161.2441711425781 C 751.9788818359375 161.2454833984375 751.9788208007812 161.2469482421875 751.978759765625 161.2482604980469 C 751.9783325195312 161.2585754394531 751.9778442382812 161.2691192626953 751.9774169921875 161.2794342041016 C 751.9773559570312 161.2803039550781 751.9773559570312 161.2807006835938 751.977294921875 161.2815704345703 C 751.976318359375 161.30322265625 751.975341796875 161.3245544433594 751.9742431640625 161.3461761474609 C 751.9742431640625 161.3470458984375 751.9741821289062 161.3475952148438 751.9741821289062 161.3484649658203 C 751.9730834960938 161.3702545166016 751.9719848632812 161.3919830322266 751.9708862304688 161.4137420654297 C 751.9708862304688 161.4141845703125 751.9708862304688 161.4140167236328 751.9708862304688 161.4144592285156 C 751.8428344726562 163.8996276855469 751.2987060546875 166.1883850097656 750.4541015625 168.09033203125 L 749.5402221679688 167.6845397949219 C 750.49267578125 165.5395355224609 750.9974975585938 162.9852294921875 751 160.2977294921875 Z M 747.5682983398438 170.7454376220703 L 748.2933959960938 171.4341278076172 C 748.1947021484375 171.5380096435547 748.0945434570312 171.6384429931641 747.9930419921875 171.7352752685547 C 747.9924926757812 171.7357940673828 747.9918823242188 171.736328125 747.9913940429688 171.7368469238281 C 747.9819946289062 171.7457885742188 747.972412109375 171.7548522949219 747.9630126953125 171.7637329101562 C 747.9616088867188 171.7650604248047 747.9603881835938 171.7662200927734 747.958984375 171.7675476074219 C 747.9561157226562 171.7702331542969 747.9534912109375 171.7727508544922 747.9506225585938 171.7754211425781 C 747.9505004882812 171.7755737304688 747.950439453125 171.7755889892578 747.9503173828125 171.7757415771484 C 747.9443969726562 171.7812805175781 747.9385986328125 171.7867279052734 747.9326782226562 171.7922515869141 C 747.9309692382812 171.7938690185547 747.92919921875 171.7954711914062 747.927490234375 171.7970733642578 C 747.9251098632812 171.7993316650391 747.9229736328125 171.8013000488281 747.9205322265625 171.8035430908203 C 747.9180297851562 171.8058776855469 747.9156494140625 171.8080902099609 747.9131469726562 171.8104248046875 C 747.9100952148438 171.8132781982422 747.9072875976562 171.8159027099609 747.9041748046875 171.8187408447266 C 747.9013671875 171.8213653564453 747.8985595703125 171.8239135742188 747.895751953125 171.8265380859375 C 747.893798828125 171.8283538818359 747.892333984375 171.8296966552734 747.890380859375 171.8315124511719 C 747.8875122070312 171.8341217041016 747.884765625 171.836669921875 747.8818969726562 171.8392639160156 C 747.8801879882812 171.8408813476562 747.8787841796875 171.8421478271484 747.8770141601562 171.8437652587891 C 747.873046875 171.8474426269531 747.8689575195312 171.8511505126953 747.8649291992188 171.8548126220703 C 747.8634033203125 171.8562316894531 747.8616333007812 171.8578338623047 747.860107421875 171.8592376708984 C 747.8570556640625 171.8620452880859 747.8539428710938 171.8648529052734 747.8508911132812 171.8676452636719 C 747.8493041992188 171.8690490722656 747.8478393554688 171.8703918457031 747.8463134765625 171.8717803955078 C 747.842041015625 171.8756561279297 747.8378295898438 171.8795013427734 747.8335571289062 171.8833618164062 C 747.8324584960938 171.8843536376953 747.8316650390625 171.8850555419922 747.83056640625 171.8860473632812 C 747.826904296875 171.8893432617188 747.8233642578125 171.8925170898438 747.8197631835938 171.8957977294922 C 747.8184204101562 171.8969879150391 747.8173828125 171.8979339599609 747.8160400390625 171.8991241455078 C 747.806884765625 171.9073791503906 747.7976684570312 171.9156036376953 747.7884521484375 171.9237976074219 C 747.787353515625 171.9247894287109 747.7867431640625 171.92529296875 747.78564453125 171.9262847900391 C 747.7763061523438 171.9346160888672 747.7669067382812 171.9429168701172 747.7575073242188 171.951171875 C 747.7568359375 171.9517669677734 747.7559204101562 171.9525909423828 747.7552490234375 171.9531860351562 C 747.750732421875 171.9571685791016 747.7462158203125 171.9611358642578 747.7416381835938 171.9651184082031 C 747.7416381835938 171.9651184082031 747.7412109375 171.9655303955078 747.7412109375 171.9655303955078 C 747.7310791015625 171.9743957519531 747.720947265625 171.9832305908203 747.7107543945312 171.9920196533203 C 747.7107543945312 171.9920196533203 747.7106323242188 171.9921264648438 747.7106323242188 171.9921264648438 C 746.7857055664062 172.793701171875 745.7543334960938 173.304931640625 744.6605224609375 173.4526214599609 C 744.6599731445312 173.4526977539062 744.65966796875 173.4527282714844 744.6591186523438 173.4528045654297 C 744.6473388671875 173.4543914794922 744.6357421875 173.4559173583984 744.6239013671875 173.4574279785156 C 744.6233520507812 173.4574890136719 744.6235961914062 173.4574737548828 744.623046875 173.4575347900391 C 744.6112060546875 173.4590454101562 744.599365234375 173.4605102539062 744.5875854492188 173.4619293212891 C 744.5816040039062 173.4626312255859 744.5759887695312 173.4633026123047 744.570068359375 173.4639892578125 C 744.5695190429688 173.4640502929688 744.5689086914062 173.4641265869141 744.5684204101562 173.4641876220703 C 744.5568237304688 173.4655151367188 744.5452880859375 173.4668273925781 744.53369140625 173.4680786132812 C 744.5328979492188 173.4681701660156 744.5323486328125 173.4682312011719 744.5315551757812 173.4683074951172 C 744.5200805664062 173.4695587158203 744.5084838867188 173.4707794189453 744.4970092773438 173.4719390869141 C 744.4907836914062 173.4725646972656 744.485107421875 173.4731292724609 744.4788818359375 173.4737396240234 C 744.4727172851562 173.4743347167969 744.4661865234375 173.4749603271484 744.4600219726562 173.4755401611328 C 744.4541625976562 173.4760894775391 744.4488525390625 173.4765777587891 744.4429931640625 173.4771118164062 C 744.4421997070312 173.4771728515625 744.4412841796875 173.4772644042969 744.4404907226562 173.4773406982422 C 744.4282836914062 173.4784240722656 744.4158325195312 173.4794921875 744.403564453125 173.4804992675781 C 744.3911743164062 173.4815216064453 744.37890625 173.4824829101562 744.366455078125 173.4834136962891 C 744.3607177734375 173.4838409423828 744.3550415039062 173.4842529296875 744.3492431640625 173.4846649169922 C 744.342529296875 173.4851379394531 744.3362426757812 173.4855651855469 744.32958984375 173.4860229492188 C 744.3235473632812 173.4864196777344 744.3180541992188 173.4867858886719 744.31201171875 173.4871673583984 C 744.305419921875 173.4875793457031 744.2994384765625 173.4879455566406 744.2927856445312 173.4883422851562 C 744.2866821289062 173.4887084960938 744.2809448242188 173.4890441894531 744.2747802734375 173.4893798828125 C 744.2623901367188 173.4900665283203 744.2498779296875 173.49072265625 744.2374877929688 173.4913177490234 C 744.2316284179688 173.4915924072266 744.226318359375 173.4918518066406 744.220458984375 173.4921112060547 C 744.2138061523438 173.4924011230469 744.2076416015625 173.49267578125 744.2009887695312 173.4929351806641 C 744.195068359375 173.4931793212891 744.1890869140625 173.493408203125 744.1831665039062 173.4936370849609 C 744.1766357421875 173.4938812255859 744.1707153320312 173.4940795898438 744.1641845703125 173.4943084716797 C 744.157958984375 173.4945068359375 744.1517333984375 173.4947052001953 744.1455078125 173.4948883056641 C 744.14013671875 173.4950408935547 744.1348266601562 173.4951934814453 744.1294555664062 173.4953460693359 C 744.1294555664062 173.4953460693359 744.1293334960938 173.4953460693359 744.1293334960938 173.4953460693359 C 744.1222534179688 173.4955291748047 744.1156005859375 173.4956817626953 744.1085205078125 173.4958343505859 C 744.1028442382812 173.4959716796875 744.0972900390625 173.4960784912109 744.091552734375 173.4961853027344 C 744.0848388671875 173.4963073730469 744.0777587890625 173.4964294433594 744.071044921875 173.4965209960938 C 744.0654296875 173.4965972900391 744.0595703125 173.4966735839844 744.053955078125 173.4967346191406 C 744.0474853515625 173.4968109130859 744.0408325195312 173.4968719482422 744.0343627929688 173.4969177246094 C 744.0285034179688 173.4969482421875 744.0224609375 173.4969787597656 744.0166015625 173.4970092773438 C 744.0111083984375 173.4970245361328 744.0054931640625 173.4970397949219 744 173.4970397949219 C 744 173.4970397949219 740.8997802734375 173.4970397949219 740.8997802734375 173.4970397949219 L 740.8997802734375 172.4970397949219 L 744 172.4970397949219 C 745.24609375 172.4970397949219 746.47998046875 171.8913421630859 747.5682983398438 170.7454376220703 Z M 728.8997802734375 172.4970397949219 L 736.8997802734375 172.4970397949219 L 736.8997802734375 173.4970397949219 C 736.8997802734375 173.4970397949219 728.8997802734375 173.4970397949219 728.8997802734375 173.4970397949219 L 728.8997802734375 172.4970397949219 Z M 716.8997802734375 172.4970397949219 L 724.8997802734375 172.4970397949219 L 724.8997802734375 173.4970397949219 C 724.8997802734375 173.4970397949219 716.8997802734375 173.4970397949219 716.8997802734375 173.4970397949219 L 716.8997802734375 172.4970397949219 Z M 704.8997802734375 172.4970397949219 L 712.8997802734375 172.4970397949219 L 712.8997802734375 173.4970397949219 C 712.8997802734375 173.4970397949219 704.8997802734375 173.4970397949219 704.8997802734375 173.4970397949219 L 704.8997802734375 172.4970397949219 Z M 692.8997802734375 172.4970397949219 L 700.8997802734375 172.4970397949219 L 700.8997802734375 173.4970397949219 C 700.8997802734375 173.4970397949219 692.8997802734375 173.4970397949219 692.8997802734375 173.4970397949219 L 692.8997802734375 172.4970397949219 Z M 680.8997802734375 172.4970397949219 L 688.8997802734375 172.4970397949219 L 688.8997802734375 173.4970397949219 C 688.8997802734375 173.4970397949219 680.8997802734375 173.4970397949219 680.8997802734375 173.4970397949219 L 680.8997802734375 172.4970397949219 Z M 668.8997802734375 172.4970397949219 L 676.8997802734375 172.4970397949219 L 676.8997802734375 173.4970397949219 C 676.8997802734375 173.4970397949219 668.8997802734375 173.4970397949219 668.8997802734375 173.4970397949219 L 668.8997802734375 172.4970397949219 Z M 656.8997802734375 172.4970397949219 L 664.8997802734375 172.4970397949219 L 664.8997802734375 173.4970397949219 C 664.8997802734375 173.4970397949219 656.8997802734375 173.4970397949219 656.8997802734375 173.4970397949219 L 656.8997802734375 172.4970397949219 Z M 644.8997802734375 172.4970397949219 L 652.8997802734375 172.4970397949219 L 652.8997802734375 173.4970397949219 C 652.8997802734375 173.4970397949219 644.8997802734375 173.4970397949219 644.8997802734375 173.4970397949219 L 644.8997802734375 172.4970397949219 Z M 632.8997802734375 172.4970397949219 L 640.8997802734375 172.4970397949219 L 640.8997802734375 173.4970397949219 C 640.8997802734375 173.4970397949219 632.8997802734375 173.4970397949219 632.8997802734375 173.4970397949219 L 632.8997802734375 172.4970397949219 Z M 620.8997802734375 172.4970397949219 L 628.8997802734375 172.4970397949219 L 628.8997802734375 173.4970397949219 C 628.8997802734375 173.4970397949219 620.8997802734375 173.4970397949219 620.8997802734375 173.4970397949219 L 620.8997802734375 172.4970397949219 Z M 608.8997802734375 172.4970397949219 L 616.8997802734375 172.4970397949219 L 616.8997802734375 173.4970397949219 C 616.8997802734375 173.4970397949219 608.8997802734375 173.4970397949219 608.8997802734375 173.4970397949219 L 608.8997802734375 172.4970397949219 Z M 596.8997802734375 172.4970397949219 L 604.8997802734375 172.4970397949219 L 604.8997802734375 173.4970397949219 C 604.8997802734375 173.4970397949219 596.8997802734375 173.4970397949219 596.8997802734375 173.4970397949219 L 596.8997802734375 172.4970397949219 Z M 584.8997802734375 172.4970397949219 L 592.8997802734375 172.4970397949219 L 592.8997802734375 173.4970397949219 C 592.8997802734375 173.4970397949219 584.8997802734375 173.4970397949219 584.8997802734375 173.4970397949219 L 584.8997802734375 172.4970397949219 Z M 572.8997802734375 172.4970397949219 L 580.8997802734375 172.4970397949219 L 580.8997802734375 173.4970397949219 C 580.8997802734375 173.4970397949219 572.8997802734375 173.4970397949219 572.8997802734375 173.4970397949219 L 572.8997802734375 172.4970397949219 Z M 560.8997802734375 172.4970397949219 L 568.8997802734375 172.4970397949219 L 568.8997802734375 173.4970397949219 C 568.8997802734375 173.4970397949219 560.8997802734375 173.4970397949219 560.8997802734375 173.4970397949219 L 560.8997802734375 172.4970397949219 Z M 548.8997802734375 172.4970397949219 L 556.8997802734375 172.4970397949219 L 556.8997802734375 173.4970397949219 C 556.8997802734375 173.4970397949219 548.8997802734375 173.4970397949219 548.8997802734375 173.4970397949219 L 548.8997802734375 172.4970397949219 Z M 536.8997802734375 172.4970397949219 L 544.8997802734375 172.4970397949219 L 544.8997802734375 173.4970397949219 C 544.8997802734375 173.4970397949219 536.8997802734375 173.4970397949219 536.8997802734375 173.4970397949219 L 536.8997802734375 172.4970397949219 Z M 524.8997802734375 172.4970397949219 L 532.8997802734375 172.4970397949219 L 532.8997802734375 173.4970397949219 C 532.8997802734375 173.4970397949219 524.8997802734375 173.4970397949219 524.8997802734375 173.4970397949219 L 524.8997802734375 172.4970397949219 Z M 512.8997802734375 172.4970397949219 L 520.8997802734375 172.4970397949219 L 520.8997802734375 173.4970397949219 C 520.8997802734375 173.4970397949219 512.8997802734375 173.4970397949219 512.8997802734375 173.4970397949219 L 512.8997802734375 172.4970397949219 Z M 500.8997802734375 172.4970397949219 L 508.8997802734375 172.4970397949219 L 508.8997802734375 173.4970397949219 C 508.8997802734375 173.4970397949219 500.8997802734375 173.4970397949219 500.8997802734375 173.4970397949219 L 500.8997802734375 172.4970397949219 Z M 488.8998107910156 172.4970397949219 L 496.8997802734375 172.4970397949219 L 496.8997802734375 173.4970397949219 C 496.8997802734375 173.4970397949219 488.8998107910156 173.4970397949219 488.8998107910156 173.4970397949219 L 488.8998107910156 172.4970397949219 Z M 476.8998107910156 172.4970397949219 L 484.8998107910156 172.4970397949219 L 484.8998107910156 173.4970397949219 C 484.8998107910156 173.4970397949219 476.8998107910156 173.4970397949219 476.8998107910156 173.4970397949219 L 476.8998107910156 172.4970397949219 Z M 464.8998107910156 172.4970397949219 L 472.8998107910156 172.4970397949219 L 472.8998107910156 173.4970397949219 C 472.8998107910156 173.4970397949219 464.8998107910156 173.4970397949219 464.8998107910156 173.4970397949219 L 464.8998107910156 172.4970397949219 Z M 452.8998107910156 172.4970397949219 L 460.8998107910156 172.4970397949219 L 460.8998107910156 173.4970397949219 C 460.8998107910156 173.4970397949219 452.8998107910156 173.4970397949219 452.8998107910156 173.4970397949219 L 452.8998107910156 172.4970397949219 Z M 440.8998107910156 172.4970397949219 L 448.8998107910156 172.4970397949219 L 448.8998107910156 173.4970397949219 C 448.8998107910156 173.4970397949219 440.8998107910156 173.4970397949219 440.8998107910156 173.4970397949219 L 440.8998107910156 172.4970397949219 Z M 428.8998107910156 172.4970397949219 L 436.8998107910156 172.4970397949219 L 436.8998107910156 173.4970397949219 C 436.8998107910156 173.4970397949219 428.8998107910156 173.4970397949219 428.8998107910156 173.4970397949219 L 428.8998107910156 172.4970397949219 Z M 416.8998107910156 172.4970397949219 L 424.8998107910156 172.4970397949219 L 424.8998107910156 173.4970397949219 C 424.8998107910156 173.4970397949219 416.8998107910156 173.4970397949219 416.8998107910156 173.4970397949219 L 416.8998107910156 172.4970397949219 Z M 404.8998107910156 172.4970397949219 L 412.8998107910156 172.4970397949219 L 412.8998107910156 173.4970397949219 C 412.8998107910156 173.4970397949219 404.8998107910156 173.4970397949219 404.8998107910156 173.4970397949219 L 404.8998107910156 172.4970397949219 Z M 392.8998107910156 172.4970397949219 L 400.8998107910156 172.4970397949219 L 400.8998107910156 173.4970397949219 C 400.8998107910156 173.4970397949219 392.8998107910156 173.4970397949219 392.8998107910156 173.4970397949219 L 392.8998107910156 172.4970397949219 Z M 380.8998107910156 172.4970397949219 L 388.8998107910156 172.4970397949219 L 388.8998107910156 173.4970397949219 C 388.8998107910156 173.4970397949219 380.8998107910156 173.4970397949219 380.8998107910156 173.4970397949219 L 380.8998107910156 172.4970397949219 Z M 368.8998107910156 172.4970397949219 L 376.8998107910156 172.4970397949219 L 376.8998107910156 173.4970397949219 C 376.8998107910156 173.4970397949219 368.8998107910156 173.4970397949219 368.8998107910156 173.4970397949219 L 368.8998107910156 172.4970397949219 Z M 356.8998107910156 172.4970397949219 L 364.8998107910156 172.4970397949219 L 364.8998107910156 173.4970397949219 C 364.8998107910156 173.4970397949219 356.8998107910156 173.4970397949219 356.8998107910156 173.4970397949219 L 356.8998107910156 172.4970397949219 Z M 344.8998107910156 172.4970397949219 L 352.8998107910156 172.4970397949219 L 352.8998107910156 173.4970397949219 C 352.8998107910156 173.4970397949219 344.8998107910156 173.4970397949219 344.8998107910156 173.4970397949219 L 344.8998107910156 172.4970397949219 Z M 332.8998107910156 172.4970397949219 L 340.8998107910156 172.4970397949219 L 340.8998107910156 173.4970397949219 C 340.8998107910156 173.4970397949219 332.8998107910156 173.4970397949219 332.8998107910156 173.4970397949219 L 332.8998107910156 172.4970397949219 Z M 320.8998107910156 172.4970397949219 L 328.8998107910156 172.4970397949219 L 328.8998107910156 173.4970397949219 C 328.8998107910156 173.4970397949219 320.8998107910156 173.4970397949219 320.8998107910156 173.4970397949219 L 320.8998107910156 172.4970397949219 Z M 308.8998107910156 172.4970397949219 L 316.8998107910156 172.4970397949219 L 316.8998107910156 173.4970397949219 C 316.8998107910156 173.4970397949219 308.8998107910156 173.4970397949219 308.8998107910156 173.4970397949219 L 308.8998107910156 172.4970397949219 Z M 296.8998107910156 172.4970397949219 L 304.8998107910156 172.4970397949219 L 304.8998107910156 173.4970397949219 C 304.8998107910156 173.4970397949219 296.8998107910156 173.4970397949219 296.8998107910156 173.4970397949219 L 296.8998107910156 172.4970397949219 Z M 284.8998107910156 172.4970397949219 L 292.8998107910156 172.4970397949219 L 292.8998107910156 173.4970397949219 C 292.8998107910156 173.4970397949219 284.8998107910156 173.4970397949219 284.8998107910156 173.4970397949219 L 284.8998107910156 172.4970397949219 Z M 272.8998107910156 172.4970397949219 L 280.8998107910156 172.4970397949219 L 280.8998107910156 173.4970397949219 C 280.8998107910156 173.4970397949219 272.8998107910156 173.4970397949219 272.8998107910156 173.4970397949219 L 272.8998107910156 172.4970397949219 Z M 260.8998107910156 172.4970397949219 L 268.8998107910156 172.4970397949219 L 268.8998107910156 173.4970397949219 C 268.8998107910156 173.4970397949219 260.8998107910156 173.4970397949219 260.8998107910156 173.4970397949219 L 260.8998107910156 172.4970397949219 Z M 248.8998107910156 172.4970397949219 L 256.8998107910156 172.4970397949219 L 256.8998107910156 173.4970397949219 C 256.8998107910156 173.4970397949219 248.8998107910156 173.4970397949219 248.8998107910156 173.4970397949219 L 248.8998107910156 172.4970397949219 Z M 236.8997802734375 172.4970397949219 L 244.8998107910156 172.4970397949219 L 244.8998107910156 173.4970397949219 C 244.8998107910156 173.4970397949219 236.8997802734375 173.4970397949219 236.8997802734375 173.4970397949219 L 236.8997802734375 172.4970397949219 Z M 224.8997802734375 172.4970397949219 L 232.8997802734375 172.4970397949219 L 232.8997802734375 173.4970397949219 C 232.8997802734375 173.4970397949219 224.8997802734375 173.4970397949219 224.8997802734375 173.4970397949219 L 224.8997802734375 172.4970397949219 Z M 212.8997802734375 172.4970397949219 L 220.8997802734375 172.4970397949219 L 220.8997802734375 173.4970397949219 C 220.8997802734375 173.4970397949219 212.8997802734375 173.4970397949219 212.8997802734375 173.4970397949219 L 212.8997802734375 172.4970397949219 Z M 200.8997802734375 172.4970397949219 L 208.8997802734375 172.4970397949219 L 208.8997802734375 173.4970397949219 C 208.8997802734375 173.4970397949219 200.8997802734375 173.4970397949219 200.8997802734375 173.4970397949219 L 200.8997802734375 172.4970397949219 Z M 188.8997802734375 172.4970397949219 L 196.8997802734375 172.4970397949219 L 196.8997802734375 173.4970397949219 C 196.8997802734375 173.4970397949219 188.8997802734375 173.4970397949219 188.8997802734375 173.4970397949219 L 188.8997802734375 172.4970397949219 Z M 176.8997802734375 172.4970397949219 L 184.8997802734375 172.4970397949219 L 184.8997802734375 173.4970397949219 C 184.8997802734375 173.4970397949219 176.8997802734375 173.4970397949219 176.8997802734375 173.4970397949219 L 176.8997802734375 172.4970397949219 Z M 164.8997802734375 172.4970397949219 L 172.8997802734375 172.4970397949219 L 172.8997802734375 173.4970397949219 C 172.8997802734375 173.4970397949219 164.8997802734375 173.4970397949219 164.8997802734375 173.4970397949219 L 164.8997802734375 172.4970397949219 Z M 152.8997802734375 172.4970397949219 L 160.8997802734375 172.4970397949219 L 160.8997802734375 173.4970397949219 C 160.8997802734375 173.4970397949219 152.8997802734375 173.4970397949219 152.8997802734375 173.4970397949219 L 152.8997802734375 172.4970397949219 Z M 140.8997802734375 172.4970397949219 L 148.8997802734375 172.4970397949219 L 148.8997802734375 173.4970397949219 C 148.8997802734375 173.4970397949219 140.8997802734375 173.4970397949219 140.8997802734375 173.4970397949219 L 140.8997802734375 172.4970397949219 Z M 128.8997802734375 172.4970397949219 L 136.8997802734375 172.4970397949219 L 136.8997802734375 173.4970397949219 C 136.8997802734375 173.4970397949219 128.8997802734375 173.4970397949219 128.8997802734375 173.4970397949219 L 128.8997802734375 172.4970397949219 Z M 116.8997802734375 172.4970397949219 L 124.8997802734375 172.4970397949219 L 124.8997802734375 173.4970397949219 C 124.8997802734375 173.4970397949219 116.8997802734375 173.4970397949219 116.8997802734375 173.4970397949219 L 116.8997802734375 172.4970397949219 Z M 104.8997802734375 172.4970397949219 L 112.8997802734375 172.4970397949219 L 112.8997802734375 173.4970397949219 C 112.8997802734375 173.4970397949219 104.8997802734375 173.4970397949219 104.8997802734375 173.4970397949219 L 104.8997802734375 172.4970397949219 Z M 92.8997802734375 172.4970397949219 L 100.8997802734375 172.4970397949219 L 100.8997802734375 173.4970397949219 C 100.8997802734375 173.4970397949219 92.8997802734375 173.4970397949219 92.8997802734375 173.4970397949219 L 92.8997802734375 172.4970397949219 Z M 80.8997802734375 172.4970397949219 L 88.8997802734375 172.4970397949219 L 88.8997802734375 173.4970397949219 C 88.8997802734375 173.4970397949219 80.8997802734375 173.4970397949219 80.8997802734375 173.4970397949219 L 80.8997802734375 172.4970397949219 Z M 68.8997802734375 172.4970397949219 L 76.8997802734375 172.4970397949219 L 76.8997802734375 173.4970397949219 C 76.8997802734375 173.4970397949219 68.8997802734375 173.4970397949219 68.8997802734375 173.4970397949219 L 68.8997802734375 172.4970397949219 Z M 56.8997802734375 172.4970397949219 L 64.8997802734375 172.4970397949219 L 64.8997802734375 173.4970397949219 C 64.8997802734375 173.4970397949219 56.8997802734375 173.4970397949219 56.8997802734375 173.4970397949219 L 56.8997802734375 172.4970397949219 Z M 44.8997802734375 172.4970397949219 L 52.8997802734375 172.4970397949219 L 52.8997802734375 173.4970397949219 C 52.8997802734375 173.4970397949219 44.8997802734375 173.4970397949219 44.8997802734375 173.4970397949219 L 44.8997802734375 172.4970397949219 Z M 32.8997802734375 172.4970397949219 L 40.8997802734375 172.4970397949219 L 40.8997802734375 173.4970397949219 C 40.8997802734375 173.4970397949219 32.8997802734375 173.4970397949219 32.8997802734375 173.4970397949219 L 32.8997802734375 172.4970397949219 Z M 20.8997802734375 172.4970397949219 L 28.8997802734375 172.4970397949219 L 28.8997802734375 173.4970397949219 C 28.8997802734375 173.4970397949219 20.8997802734375 173.4970397949219 20.8997802734375 173.4970397949219 L 20.8997802734375 172.4970397949219 Z M 8.8997802734375 172.4970397949219 L 16.8997802734375 172.4970397949219 L 16.8997802734375 173.4970397949219 C 16.8997802734375 173.4970397949219 8.8997802734375 173.4970397949219 8.8997802734375 173.4970397949219 L 8.8997802734375 172.4970397949219 Z M 1.753173828125 165.7438354492188 C 2.5557861328125 168.4870300292969 3.9669189453125 170.6762390136719 5.62469482421875 171.7502288818359 L 5.08087158203125 172.5894317626953 C 5.0806884765625 172.5892791748047 5.08050537109375 172.5891723632812 5.08026123046875 172.5890197753906 C 5.0771484375 172.5870056152344 5.0738525390625 172.5848693847656 5.07073974609375 172.5828552246094 C 5.0703125 172.5825500488281 5.070068359375 172.5823974609375 5.069580078125 172.5820922851562 C 5.06646728515625 172.580078125 5.0633544921875 172.5780334472656 5.06024169921875 172.5760040283203 C 5.0595703125 172.5755462646484 5.05889892578125 172.5751037597656 5.05816650390625 172.5746459960938 C 5.05517578125 172.5726928710938 5.05218505859375 172.5707397460938 5.04925537109375 172.5687866210938 C 5.04852294921875 172.5683288574219 5.04791259765625 172.5679016113281 5.04718017578125 172.5674438476562 C 5.04443359375 172.5656280517578 5.04180908203125 172.5639190673828 5.0390625 172.5621032714844 C 5.03790283203125 172.5613250732422 5.03662109375 172.5604705810547 5.035400390625 172.5596923828125 C 5.03277587890625 172.5579528808594 5.0303955078125 172.5563812255859 5.02777099609375 172.5546417236328 C 5.02679443359375 172.5540161132812 5.02569580078125 172.5532684326172 5.02471923828125 172.5526428222656 C 5.0220947265625 172.5509033203125 5.0196533203125 172.5492553710938 5.01702880859375 172.5475006103516 C 5.01580810546875 172.5467224121094 5.01434326171875 172.5457305908203 5.01312255859375 172.5449371337891 C 5.0107421875 172.5433502197266 5.008544921875 172.5418853759766 5.00616455078125 172.540283203125 C 5.0045166015625 172.5391845703125 5.00341796875 172.5384826660156 5.00177001953125 172.5373840332031 C 4.999755859375 172.5360107421875 4.9979248046875 172.5348052978516 4.99591064453125 172.5334320068359 C 4.9940185546875 172.5321655273438 4.991943359375 172.53076171875 4.99005126953125 172.5294952392578 C 4.98809814453125 172.5281982421875 4.9862060546875 172.5269165039062 4.9842529296875 172.5256195068359 C 4.98260498046875 172.5245056152344 4.98150634765625 172.5237731933594 4.9798583984375 172.5226593017578 C 4.97747802734375 172.5210571289062 4.975341796875 172.5195922851562 4.97296142578125 172.5179748535156 C 4.9713134765625 172.5168762207031 4.97021484375 172.5161590576172 4.96856689453125 172.5150451660156 C 4.96630859375 172.5135040283203 4.96429443359375 172.5121154785156 4.96197509765625 172.5105590820312 C 4.9605712890625 172.5096130371094 4.95880126953125 172.5084075927734 4.9573974609375 172.5074462890625 C 4.95538330078125 172.5060577392578 4.9532470703125 172.504638671875 4.95123291015625 172.5032348632812 C 4.9493408203125 172.501953125 4.94775390625 172.5008697509766 4.94586181640625 172.4995880126953 C 4.94390869140625 172.4982604980469 4.94189453125 172.4968872070312 4.94000244140625 172.4955596923828 C 4.9383544921875 172.4944458007812 4.9368896484375 172.4934539794922 4.93524169921875 172.4923248291016 C 4.9332275390625 172.4909210205078 4.93109130859375 172.4894561767578 4.92901611328125 172.4880523681641 C 4.92718505859375 172.4867553710938 4.92535400390625 172.4855194091797 4.9234619140625 172.4842224121094 C 4.9217529296875 172.4830474853516 4.9197998046875 172.4817047119141 4.9180908203125 172.4805297851562 C 4.916259765625 172.4792327880859 4.91424560546875 172.4778594970703 4.912353515625 172.4765625 C 4.91058349609375 172.4752960205078 4.90899658203125 172.4742126464844 4.90716552734375 172.4729461669922 C 4.905029296875 172.4714965820312 4.903076171875 172.4701385498047 4.9010009765625 172.4686737060547 C 4.8994140625 172.4675598144531 4.89752197265625 172.4662628173828 4.89593505859375 172.4651641845703 C 4.894287109375 172.4640197753906 4.89227294921875 172.4626159667969 4.89068603515625 172.4614715576172 C 4.88873291015625 172.4601287841797 4.8868408203125 172.4587860107422 4.8848876953125 172.4574432373047 C 4.8828125 172.4559783935547 4.8804931640625 172.4543762207031 4.87841796875 172.4528961181641 C 4.876953125 172.4518737792969 4.8756103515625 172.4509429931641 4.8741455078125 172.4499053955078 C 4.87158203125 172.4481048583984 4.86865234375 172.4460601806641 4.8660888671875 172.4442443847656 C 4.86505126953125 172.4435272216797 4.8642578125 172.4429779052734 4.86322021484375 172.4422607421875 C 4.8599853515625 172.4399566650391 4.85650634765625 172.4375 4.853271484375 172.4351806640625 C 4.8529052734375 172.4349517822266 4.8526611328125 172.4347686767578 4.852294921875 172.4345397949219 C 4.8038330078125 172.4002075195312 4.7557373046875 172.365234375 4.707763671875 172.3293762207031 C 4.707763671875 172.3293762207031 4.70758056640625 172.3292388916016 4.70758056640625 172.3292388916016 C 2.9979248046875 171.0520324707031 1.60858154296875 168.8104705810547 0.79339599609375 166.0246276855469 L 1.753173828125 165.7438354492188 Z M 0 154.0983276367188 L 1 154.0983276367188 L 1 160.2782287597656 C 1 160.8589324951172 1.02410888671875 161.4428405761719 1.07159423828125 162.0135345458984 L 0.0750732421875 162.0965270996094 C 0.03564453125 161.6229095458984 0.01141357421875 161.1412658691406 0.003173828125 160.6530151367188 C 0.003173828125 160.6530151367188 0.003173828125 160.6527709960938 0.003173828125 160.6527709960938 C 0.002685546875 160.6246490478516 0.00225830078125 160.5965728759766 0.00189208984375 160.5684051513672 C 0.00189208984375 160.5670776367188 0.00189208984375 160.5660095214844 0.0018310546875 160.5646820068359 C 0.001708984375 160.5561065673828 0.00164794921875 160.5474700927734 0.00152587890625 160.5388793945312 C 0.00152587890625 160.5384368896484 0.00152587890625 160.5380096435547 0.00152587890625 160.5375671386719 C 0.00140380859375 160.5284881591797 0.00128173828125 160.5193786621094 0.001220703125 160.5103149414062 C 0.001220703125 160.5089721679688 0.00115966796875 160.5070495605469 0.00115966796875 160.5057220458984 C 0.0010986328125 160.4984436035156 0.00103759765625 160.4911499023438 0.0009765625 160.4838714599609 C 0.00091552734375 160.4816436767578 0.00091552734375 160.4792938232422 0.00091552734375 160.4770660400391 C 0.00079345703125 160.4694213867188 0.000732421875 160.4617156982422 0.00067138671875 160.4540557861328 C 0.00067138671875 160.4527130126953 0.00067138671875 160.4521179199219 0.00067138671875 160.4507751464844 C 0.0006103515625 160.4420318603516 0.00054931640625 160.4333038330078 0.00048828125 160.4245452880859 C 0.00048828125 160.4223175048828 0.00042724609375 160.4202880859375 0.00042724609375 160.4180603027344 C 0.00042724609375 160.4116821289062 0.0003662109375 160.4052581787109 0.00030517578125 160.3988647460938 C 0.00030517578125 160.3961944580078 0.00030517578125 160.3924713134766 0.00030517578125 160.3898010253906 C 0.000244140625 160.38232421875 0.00018310546875 160.3749084472656 0.00018310546875 160.367431640625 C 0.00018310546875 160.3665313720703 0.00018310546875 160.3653564453125 0.00018310546875 160.3644714355469 C 0.0001220703125 160.3559265136719 0.0001220703125 160.3473663330078 6.103515625e-05 160.3388214111328 C 6.103515625e-05 160.3365936279297 6.103515625e-05 160.3332977294922 6.103515625e-05 160.3310699462891 C 6.103515625e-05 160.32470703125 6.103515625e-05 160.3183441162109 0 160.3119812011719 C 0 160.3093109130859 0 160.3065643310547 0 160.3038940429688 C 0 160.2953491210938 0 160.2867889404297 0 160.2782287597656 L 0 154.0983276367188 Z M 0 142.0983276367188 L 1 142.0983276367188 L 1 150.0983276367188 L 0 150.0983276367188 L 0 142.0983276367188 Z M 0 130.0983276367188 L 1 130.0983276367188 L 1 138.0983276367188 L 0 138.0983276367188 L 0 130.0983276367188 Z M 0 118.0983352661133 L 1 118.0983352661133 L 1 126.0983352661133 L 0 126.0983352661133 L 0 118.0983352661133 Z M 0 106.0983352661133 L 1 106.0983352661133 L 1 114.0983352661133 L 0 114.0983352661133 L 0 106.0983352661133 Z M 0 94.09833526611328 L 1 94.09833526611328 L 1 102.0983352661133 L 0 102.0983352661133 L 0 94.09833526611328 Z M 0 82.09833526611328 L 1 82.09833526611328 L 1 90.09833526611328 L 0 90.09833526611328 L 0 82.09833526611328 Z M 0 70.09833526611328 L 1 70.09833526611328 L 1 78.09833526611328 L 0 78.09833526611328 L 0 70.09833526611328 Z M 0 58.09833526611328 L 1 58.09833526611328 L 1 66.09833526611328 L 0 66.09833526611328 L 0 58.09833526611328 Z M 0 46.09833526611328 L 1 46.09833526611328 L 1 54.09833526611328 L 0 54.09833526611328 L 0 46.09833526611328 Z M 0 34.09832763671875 L 1 34.09832763671875 L 1 42.09832763671875 L 0 42.09832763671875 L 0 34.09832763671875 Z M 0 22.09832763671875 L 1 22.09832763671875 L 1 30.09832763671875 L 0 30.09832763671875 L 0 22.09832763671875 Z M 0.22271728515625 10.108642578125 L 1.21221923828125 10.25303649902344 C 1.0714111328125 11.21783447265625 1 12.21572875976562 1 13.21884155273438 L 1 18.09832763671875 L 0 18.09832763671875 L 0 13.21884155273438 C 0 13.21884155273438 0 13.21884155273438 0 13.21884155273438 C 0 13.21086120605469 0 13.20291137695312 0 13.19493103027344 C 0 13.19316101074219 0 13.19158935546875 0 13.1898193359375 C 0 13.18360900878906 6.103515625e-05 13.17747497558594 6.103515625e-05 13.1712646484375 C 6.103515625e-05 13.16903686523438 6.103515625e-05 13.16593933105469 6.103515625e-05 13.16371154785156 C 6.103515625e-05 13.15855407714844 0.0001220703125 13.15339660644531 0.0001220703125 13.14822387695312 C 0.0001220703125 13.14511108398438 0.0001220703125 13.14230346679688 0.0001220703125 13.13919067382812 C 0.00018310546875 13.13447570800781 0.00018310546875 13.12977600097656 0.00018310546875 13.12507629394531 C 0.000244140625 13.12152099609375 0.000244140625 13.11843872070312 0.000244140625 13.1148681640625 C 0.000244140625 13.110107421875 0.00030517578125 13.10536193847656 0.00030517578125 13.10060119628906 C 0.00030517578125 13.09793090820312 0.0003662109375 13.0946044921875 0.0003662109375 13.09193420410156 C 0.00042724609375 13.08436584472656 0.00042724609375 13.07676696777344 0.00048828125 13.06919860839844 C 0.00054931640625 13.0665283203125 0.00054931640625 13.06437683105469 0.00054931640625 13.06170654296875 C 0.0006103515625 13.05648803710938 0.0006103515625 13.05122375488281 0.00067138671875 13.04600524902344 C 0.000732421875 13.04200744628906 0.000732421875 13.03910827636719 0.000732421875 13.03511047363281 C 0.00079345703125 13.0311279296875 0.0008544921875 13.0272216796875 0.0008544921875 13.02323913574219 C 0.00091552734375 13.01925659179688 0.00091552734375 13.01509094238281 0.0009765625 13.01109313964844 C 0.0009765625 13.00736999511719 0.00103759765625 13.00367736816406 0.0010986328125 12.99995422363281 C 0.0010986328125 12.9959716796875 0.00115966796875 12.99200439453125 0.001220703125 12.98800659179688 C 0.001220703125 12.98410034179688 0.00128173828125 12.98027038574219 0.0013427734375 12.97636413574219 C 0.0013427734375 12.97280883789062 0.00140380859375 12.96867370605469 0.00146484375 12.96513366699219 C 0.00146484375 12.96083068847656 0.00152587890625 12.95660400390625 0.0015869140625 12.95230102539062 C 0.00164794921875 12.94876098632812 0.001708984375 12.94503784179688 0.001708984375 12.94149780273438 C 0.00177001953125 12.94000244140625 0.00177001953125 12.93861389160156 0.00177001953125 12.93711853027344 C 0.00189208984375 12.92691040039062 0.00201416015625 12.9176025390625 0.002197265625 12.90740966796875 C 0.00225830078125 12.90390014648438 0.00225830078125 12.900390625 0.0023193359375 12.89688110351562 C 0.00238037109375 12.89334106445312 0.00244140625 12.88922119140625 0.00250244140625 12.88568115234375 C 0.0025634765625 12.88165283203125 0.00262451171875 12.87762451171875 0.002685546875 12.87359619140625 C 0.00274658203125 12.86917114257812 0.0028076171875 12.86515808105469 0.00286865234375 12.86073303222656 C 0.0029296875 12.85781860351562 0.00299072265625 12.85505676269531 0.0030517578125 12.85212707519531 C 0.00311279296875 12.84725952148438 0.003173828125 12.84213256835938 0.0032958984375 12.83726501464844 C 0.0032958984375 12.83511352539062 0.00335693359375 12.83285522460938 0.00335693359375 12.83071899414062 C 0.00347900390625 12.82496643066406 0.00360107421875 12.81977844238281 0.003662109375 12.81402587890625 C 0.003662109375 12.81370544433594 0.00372314453125 12.81332397460938 0.00372314453125 12.81300354003906 C 0.0040283203125 12.79441833496094 0.00439453125 12.775146484375 0.00482177734375 12.756591796875 C 0.0048828125 12.75379943847656 0.00494384765625 12.7510986328125 0.0050048828125 12.74832153320312 C 0.00506591796875 12.74345397949219 0.00518798828125 12.73898315429688 0.00531005859375 12.734130859375 C 0.00531005859375 12.73139953613281 0.00537109375 12.72865295410156 0.00543212890625 12.72592163085938 C 0.00555419921875 12.7210693359375 0.00567626953125 12.71661376953125 0.00579833984375 12.71176147460938 C 0.005859375 12.70877075195312 0.00592041015625 12.70579528808594 0.0059814453125 12.70280456542969 C 0.006103515625 12.69795227050781 0.0062255859375 12.693115234375 0.00634765625 12.68826293945312 C 0.00634765625 12.68638610839844 0.00640869140625 12.68443298339844 0.0064697265625 12.68255615234375 C 0.007080078125 12.65608215332031 0.00775146484375 12.63037109375 0.00848388671875 12.60394287109375 C 0.008544921875 12.60302734375 0.008544921875 12.60221862792969 0.00860595703125 12.601318359375 C 0.00872802734375 12.59559631347656 0.0089111328125 12.58891296386719 0.00909423828125 12.58317565917969 C 0.0091552734375 12.58183288574219 0.0091552734375 12.58045959472656 0.00921630859375 12.5791015625 C 0.0093994140625 12.57293701171875 0.00958251953125 12.56716918945312 0.00970458984375 12.56100463867188 C 0.009765625 12.55984497070312 0.00982666015625 12.55874633789062 0.00982666015625 12.55758666992188 C 0.010009765625 12.55186462402344 0.01019287109375 12.54510498046875 0.0103759765625 12.53938293457031 C 0.01043701171875 12.53836059570312 0.01043701171875 12.53726196289062 0.010498046875 12.53622436523438 C 0.03082275390625 11.87530517578125 0.08050537109375 11.22738647460938 0.15753173828125 10.59559631347656 C 0.1575927734375 10.59503173828125 0.15765380859375 10.59454345703125 0.15771484375 10.593994140625 C 0.1607666015625 10.56918334960938 0.16387939453125 10.54383850097656 0.1669921875 10.51907348632812 C 0.167236328125 10.51708984375 0.16748046875 10.51507568359375 0.167724609375 10.51309204101562 C 0.16839599609375 10.508056640625 0.1689453125 10.50373840332031 0.1695556640625 10.49870300292969 C 0.16986083984375 10.49629211425781 0.170166015625 10.49385070800781 0.17047119140625 10.49143981933594 C 0.17108154296875 10.48683166503906 0.17156982421875 10.48291015625 0.172119140625 10.47828674316406 C 0.172607421875 10.47491455078125 0.17303466796875 10.47145080566406 0.1734619140625 10.46807861328125 C 0.1739501953125 10.46429443359375 0.17437744140625 10.46096801757812 0.17486572265625 10.45719909667969 C 0.1754150390625 10.45265197753906 0.176025390625 10.4481201171875 0.1766357421875 10.44357299804688 C 0.17694091796875 10.44105529785156 0.17724609375 10.43852233886719 0.1776123046875 10.43600463867188 C 0.1795654296875 10.42094421386719 0.1815185546875 10.4058837890625 0.1834716796875 10.39083862304688 C 0.18359375 10.38999938964844 0.1837158203125 10.38932800292969 0.18377685546875 10.38848876953125 C 0.1846923828125 10.38168334960938 0.18560791015625 10.37478637695312 0.1865234375 10.36798095703125 C 0.1866455078125 10.36714172363281 0.18682861328125 10.36566162109375 0.18695068359375 10.36482238769531 C 0.18780517578125 10.35813903808594 0.188720703125 10.35147094726562 0.18963623046875 10.34478759765625 C 0.1898193359375 10.34353637695312 0.18988037109375 10.34297180175781 0.1900634765625 10.34172058105469 C 0.20050048828125 10.26376342773438 0.21142578125 10.18606567382812 0.22271728515625 10.108642578125 Z M 6.2388916015625 0.3213653564453125 L 6.5869140625 1.258834838867188 C 4.7869873046875 1.92694091796875 3.1663818359375 3.8707275390625 2.1405029296875 6.591842651367188 L 1.204833984375 6.239059448242188 C 1.75 4.792984008789062 2.45965576171875 3.5335693359375 3.2904052734375 2.532257080078125 C 3.29071044921875 2.531875610351562 3.2908935546875 2.531646728515625 3.29119873046875 2.531265258789062 C 3.31365966796875 2.504196166992188 3.3363037109375 2.477218627929688 3.35894775390625 2.450531005859375 C 3.35906982421875 2.450393676757812 3.3592529296875 2.450180053710938 3.359375 2.450057983398438 C 3.3624267578125 2.446441650390625 3.365234375 2.443084716796875 3.36834716796875 2.439483642578125 C 3.36883544921875 2.438873291015625 3.36932373046875 2.438323974609375 3.36981201171875 2.437698364257812 C 3.3726806640625 2.434341430664062 3.375732421875 2.4307861328125 3.37860107421875 2.42742919921875 C 3.37872314453125 2.42730712890625 3.3787841796875 2.427215576171875 3.37890625 2.427093505859375 C 3.38214111328125 2.423263549804688 3.38494873046875 2.419998168945312 3.38824462890625 2.416183471679688 C 3.38861083984375 2.415695190429688 3.3887939453125 2.415481567382812 3.38922119140625 2.414993286132812 C 3.39208984375 2.411651611328125 3.39508056640625 2.408157348632812 3.39794921875 2.404815673828125 C 3.39849853515625 2.404205322265625 3.3988037109375 2.40386962890625 3.3992919921875 2.40325927734375 C 3.4019775390625 2.400161743164062 3.40496826171875 2.396682739257812 3.40765380859375 2.393585205078125 C 3.40826416015625 2.392852783203125 3.40899658203125 2.391983032226562 3.40966796875 2.391250610351562 C 3.41253662109375 2.387924194335938 3.41497802734375 2.385055541992188 3.4178466796875 2.381744384765625 C 3.41815185546875 2.381378173828125 3.41827392578125 2.38128662109375 3.4185791015625 2.38092041015625 C 3.421630859375 2.377349853515625 3.42462158203125 2.3739013671875 3.427734375 2.370346069335938 C 3.42803955078125 2.369979858398438 3.42828369140625 2.369705200195312 3.4285888671875 2.369338989257812 C 3.43170166015625 2.36578369140625 3.4344482421875 2.362594604492188 3.43756103515625 2.359054565429688 C 3.43792724609375 2.358566284179688 3.43853759765625 2.35791015625 3.43896484375 2.357421875 C 3.441650390625 2.354354858398438 3.44439697265625 2.351150512695312 3.44708251953125 2.34808349609375 C 3.44818115234375 2.34686279296875 3.44921875 2.345672607421875 3.45025634765625 2.344467163085938 C 3.45269775390625 2.341629028320312 3.454833984375 2.339248657226562 3.457275390625 2.336410522460938 C 3.45782470703125 2.3358154296875 3.4583740234375 2.335189819335938 3.45892333984375 2.3345947265625 C 3.4617919921875 2.331298828125 3.46441650390625 2.328292846679688 3.46728515625 2.324996948242188 C 3.46783447265625 2.32440185546875 3.46832275390625 2.323883056640625 3.46881103515625 2.323272705078125 C 3.47174072265625 2.319992065429688 3.47418212890625 2.317169189453125 3.47711181640625 2.313888549804688 C 3.47833251953125 2.31243896484375 3.47979736328125 2.31085205078125 3.48101806640625 2.309402465820312 C 3.48291015625 2.307296752929688 3.48492431640625 2.304977416992188 3.48681640625 2.302871704101562 C 3.4884033203125 2.301071166992188 3.49005126953125 2.299209594726562 3.49163818359375 2.297409057617188 C 3.4935302734375 2.295303344726562 3.49530029296875 2.293258666992188 3.4971923828125 2.291152954101562 C 3.49737548828125 2.290924072265625 3.49774169921875 2.290512084960938 3.49798583984375 2.290267944335938 C 3.50439453125 2.283035278320312 3.51068115234375 2.275970458984375 3.51708984375 2.268768310546875 C 3.52734375 2.257339477539062 3.53729248046875 2.246231079101562 3.54754638671875 2.23486328125 C 3.5479736328125 2.234405517578125 3.548583984375 2.233673095703125 3.54901123046875 2.23321533203125 C 3.552001953125 2.229904174804688 3.5548095703125 2.226791381835938 3.55780029296875 2.223480224609375 C 3.55804443359375 2.223251342773438 3.558349609375 2.222915649414062 3.55853271484375 2.222686767578125 C 3.561767578125 2.219146728515625 3.5648193359375 2.215744018554688 3.56805419921875 2.21221923828125 C 3.56842041015625 2.211746215820312 3.56884765625 2.211334228515625 3.56927490234375 2.21087646484375 C 3.572265625 2.20758056640625 3.57501220703125 2.204498291015625 3.57806396484375 2.201202392578125 C 3.5791015625 2.200057983398438 3.579833984375 2.199249267578125 3.58087158203125 2.198104858398438 C 3.58319091796875 2.195526123046875 3.585693359375 2.192779541015625 3.58807373046875 2.190200805664062 C 3.58935546875 2.188827514648438 3.5904541015625 2.187606811523438 3.59173583984375 2.186233520507812 C 3.59393310546875 2.18377685546875 3.59625244140625 2.1812744140625 3.5985107421875 2.178817749023438 C 3.59930419921875 2.177902221679688 3.5999755859375 2.177200317382812 3.600830078125 2.176284790039062 C 3.603515625 2.173355102539062 3.60614013671875 2.170516967773438 3.60882568359375 2.1676025390625 C 3.609619140625 2.16668701171875 3.6104736328125 2.165817260742188 3.61126708984375 2.164901733398438 C 3.6138916015625 2.162109375 3.6163330078125 2.159408569335938 3.618896484375 2.1566162109375 C 3.6197509765625 2.15570068359375 3.6209716796875 2.154434204101562 3.62176513671875 2.153518676757812 C 3.6241455078125 2.150955200195312 3.62664794921875 2.148223876953125 3.6290283203125 2.145675659179688 C 3.63006591796875 2.14453125 3.63153076171875 2.143020629882812 3.632568359375 2.141876220703125 C 3.63482666015625 2.139450073242188 3.6370849609375 2.136993408203125 3.63934326171875 2.134552001953125 C 3.640380859375 2.1334228515625 3.64141845703125 2.132354736328125 3.6424560546875 2.1312255859375 C 3.64483642578125 2.128677368164062 3.64715576171875 2.126190185546875 3.6495361328125 2.123641967773438 C 3.6507568359375 2.122283935546875 3.6522216796875 2.120712280273438 3.65350341796875 2.119354248046875 C 3.65545654296875 2.117279052734375 3.657470703125 2.115097045898438 3.659423828125 2.113021850585938 C 3.660888671875 2.1114501953125 3.6624755859375 2.109771728515625 3.6639404296875 2.108200073242188 C 3.6658935546875 2.106124877929688 3.6678466796875 2.104019165039062 3.6697998046875 2.101943969726562 C 3.6712646484375 2.100372314453125 3.67254638671875 2.099044799804688 3.67401123046875 2.09747314453125 C 3.6761474609375 2.095169067382812 3.67828369140625 2.092941284179688 3.680419921875 2.09063720703125 C 3.68145751953125 2.089523315429688 3.68243408203125 2.088516235351562 3.6834716796875 2.08740234375 C 3.68597412109375 2.084762573242188 3.6885986328125 2.081985473632812 3.69110107421875 2.079360961914062 C 3.69189453125 2.078460693359375 3.69293212890625 2.077407836914062 3.69378662109375 2.076507568359375 C 3.69622802734375 2.073867797851562 3.69866943359375 2.071304321289062 3.701171875 2.068679809570312 C 3.7020263671875 2.067779541015625 3.703369140625 2.066390991210938 3.70416259765625 2.065505981445312 C 3.7066650390625 2.0628662109375 3.70904541015625 2.060394287109375 3.7115478515625 2.057769775390625 C 3.71258544921875 2.056655883789062 3.71356201171875 2.0556640625 3.714599609375 2.054550170898438 C 3.71710205078125 2.051925659179688 3.71954345703125 2.049362182617188 3.7220458984375 2.046737670898438 C 3.72308349609375 2.045623779296875 3.72357177734375 2.045166015625 3.724609375 2.044052124023438 C 3.72723388671875 2.04132080078125 3.72991943359375 2.038497924804688 3.7325439453125 2.0357666015625 C 3.7333984375 2.034881591796875 3.73419189453125 2.034042358398438 3.73504638671875 2.03314208984375 C 3.7376708984375 2.030426025390625 3.7403564453125 2.027618408203125 3.74298095703125 2.024887084960938 C 3.74383544921875 2.024002075195312 3.74444580078125 2.02337646484375 3.74530029296875 2.022506713867188 C 3.74798583984375 2.019668579101562 3.75067138671875 2.01690673828125 3.75335693359375 2.014083862304688 C 3.7540283203125 2.013427734375 3.7550048828125 2.012405395507812 3.755615234375 2.011749267578125 C 3.7587890625 2.008468627929688 3.7618408203125 2.005294799804688 3.7650146484375 2.002029418945312 C 3.7650146484375 2.002029418945312 3.76513671875 2.00189208984375 3.76513671875 2.00189208984375 C 3.7685546875 1.9984130859375 3.771728515625 1.995132446289062 3.77508544921875 1.99163818359375 C 3.77532958984375 1.991424560546875 3.77569580078125 1.990997314453125 3.77593994140625 1.99078369140625 C 3.779296875 1.987289428710938 3.78265380859375 1.983856201171875 3.78607177734375 1.980377197265625 C 3.78607177734375 1.980377197265625 3.78607177734375 1.980377197265625 3.78607177734375 1.980377197265625 C 3.78924560546875 1.977127075195312 3.79241943359375 1.973892211914062 3.79559326171875 1.97064208984375 C 3.7960205078125 1.970199584960938 3.7967529296875 1.969406127929688 3.79718017578125 1.968978881835938 C 3.80035400390625 1.965728759765625 3.80364990234375 1.962371826171875 3.80682373046875 1.959136962890625 C 3.80706787109375 1.95892333984375 3.80694580078125 1.959014892578125 3.80718994140625 1.958786010742188 C 3.81048583984375 1.9554443359375 3.81378173828125 1.952072143554688 3.81707763671875 1.948745727539062 C 3.8172607421875 1.948516845703125 3.817626953125 1.948135375976562 3.81787109375 1.947921752929688 C 3.82122802734375 1.944473266601562 3.8245849609375 1.941070556640625 3.8280029296875 1.937637329101562 C 3.8280029296875 1.937637329101562 3.828125 1.937484741210938 3.828125 1.937484741210938 C 3.8314208984375 1.934158325195312 3.8345947265625 1.930953979492188 3.837890625 1.927627563476562 C 3.838134765625 1.927413940429688 3.8387451171875 1.926803588867188 3.83892822265625 1.926589965820312 C 4.077880859375 1.685714721679688 4.324951171875 1.465011596679688 4.5794677734375 1.265792846679688 C 4.5794677734375 1.265792846679688 4.57977294921875 1.265548706054688 4.57977294921875 1.265548706054688 C 4.5870361328125 1.259872436523438 4.5943603515625 1.254165649414062 4.60162353515625 1.248519897460938 C 4.60211181640625 1.2481689453125 4.602294921875 1.248031616210938 4.60272216796875 1.2476806640625 C 4.60626220703125 1.244949340820312 4.60980224609375 1.242218017578125 4.61328125 1.239486694335938 C 4.61328125 1.239486694335938 4.6134033203125 1.239395141601562 4.6134033203125 1.239395141601562 C 4.616943359375 1.236679077148438 4.6204833984375 1.233963012695312 4.62396240234375 1.231246948242188 C 4.62445068359375 1.23089599609375 4.62493896484375 1.230514526367188 4.6253662109375 1.23016357421875 C 4.6287841796875 1.2275390625 4.63214111328125 1.2249755859375 4.63555908203125 1.222366333007812 C 4.6357421875 1.222183227539062 4.635986328125 1.222000122070312 4.63623046875 1.221832275390625 C 4.6396484375 1.219207763671875 4.64312744140625 1.216552734375 4.64654541015625 1.213943481445312 C 4.64697265625 1.213592529296875 4.64739990234375 1.213302612304688 4.6478271484375 1.21295166015625 C 4.651123046875 1.210433959960938 4.6544189453125 1.207931518554688 4.65771484375 1.205429077148438 C 4.658203125 1.205078125 4.65863037109375 1.2047119140625 4.65911865234375 1.204360961914062 C 4.66229248046875 1.201950073242188 4.6654052734375 1.199554443359375 4.66864013671875 1.1971435546875 C 4.6695556640625 1.196456909179688 4.6697998046875 1.196243286132812 4.67071533203125 1.195541381835938 C 4.67401123046875 1.19305419921875 4.67730712890625 1.190582275390625 4.68060302734375 1.188095092773438 C 4.6807861328125 1.18792724609375 4.68121337890625 1.1876220703125 4.68145751953125 1.187454223632812 C 4.68475341796875 1.184967041015625 4.68804931640625 1.1824951171875 4.69134521484375 1.180007934570312 C 4.6920166015625 1.179489135742188 4.6925048828125 1.179122924804688 4.69317626953125 1.178604125976562 C 4.6964111328125 1.17620849609375 4.6995849609375 1.173812866210938 4.7027587890625 1.171417236328125 C 4.7032470703125 1.17108154296875 4.703857421875 1.170623779296875 4.70428466796875 1.1702880859375 C 4.70733642578125 1.167984008789062 4.710205078125 1.165847778320312 4.71331787109375 1.163558959960938 C 4.7142333984375 1.162872314453125 4.7152099609375 1.162124633789062 4.71612548828125 1.16143798828125 C 4.71923828125 1.159149169921875 4.72216796875 1.156951904296875 4.7252197265625 1.154678344726562 C 4.7259521484375 1.154159545898438 4.72625732421875 1.153900146484375 4.72698974609375 1.15338134765625 C 4.73016357421875 1.151016235351562 4.73309326171875 1.14886474609375 4.73626708984375 1.146499633789062 C 4.7369384765625 1.14599609375 4.73779296875 1.1453857421875 4.73846435546875 1.144882202148438 C 4.74188232421875 1.142349243164062 4.745361328125 1.1397705078125 4.74884033203125 1.137237548828125 C 4.74908447265625 1.137069702148438 4.74908447265625 1.137054443359375 4.74932861328125 1.136886596679688 C 4.75250244140625 1.134521484375 4.755615234375 1.13226318359375 4.7587890625 1.129913330078125 C 4.759521484375 1.12939453125 4.7606201171875 1.12860107421875 4.76129150390625 1.128097534179688 C 4.76422119140625 1.125930786132812 4.76739501953125 1.123626708984375 4.7703857421875 1.1214599609375 C 4.77105712890625 1.120956420898438 4.77166748046875 1.120498657226562 4.77239990234375 1.1199951171875 C 4.77557373046875 1.117660522460938 4.778564453125 1.115478515625 4.78173828125 1.1131591796875 C 4.782470703125 1.112640380859375 4.7830810546875 1.112197875976562 4.78375244140625 1.1116943359375 C 4.790771484375 1.106597900390625 4.79779052734375 1.101516723632812 4.8048095703125 1.096466064453125 C 4.8052978515625 1.09613037109375 4.8060302734375 1.0955810546875 4.8065185546875 1.095245361328125 C 4.81005859375 1.092681884765625 4.8138427734375 1.089996337890625 4.8173828125 1.087432861328125 C 4.8173828125 1.087432861328125 4.81768798828125 1.087234497070312 4.81768798828125 1.087234497070312 C 4.82110595703125 1.084762573242188 4.8245849609375 1.082260131835938 4.82806396484375 1.079788208007812 C 4.8284912109375 1.0794677734375 4.8287353515625 1.079315185546875 4.8292236328125 1.0789794921875 C 4.85955810546875 1.057281494140625 4.89013671875 1.035858154296875 4.92071533203125 1.014755249023438 C 4.921142578125 1.014434814453125 4.92169189453125 1.014068603515625 4.92218017578125 1.013748168945312 C 4.925537109375 1.011428833007812 4.92889404296875 1.009109497070312 4.9322509765625 1.006805419921875 C 4.9327392578125 1.006484985351562 4.93328857421875 1.006103515625 4.9337158203125 1.005783081054688 C 4.9368896484375 1.003646850585938 4.94012451171875 1.001419067382812 4.9432373046875 0.9992828369140625 C 4.94464111328125 0.998321533203125 4.94573974609375 0.9975738525390625 4.9471435546875 0.996612548828125 C 4.9498291015625 0.9947967529296875 4.95233154296875 0.9930877685546875 4.9549560546875 0.9912872314453125 C 4.95611572265625 0.990478515625 4.9569091796875 0.9899749755859375 4.95806884765625 0.989166259765625 C 4.960693359375 0.98736572265625 4.96343994140625 0.9855194091796875 4.966064453125 0.9837188720703125 C 4.967529296875 0.9827728271484375 4.9691162109375 0.981689453125 4.97052001953125 0.9807281494140625 C 4.9727783203125 0.97918701171875 4.97528076171875 0.9775238037109375 4.9775390625 0.975982666015625 C 4.97943115234375 0.9747161865234375 4.98138427734375 0.9734039306640625 4.98321533203125 0.972137451171875 C 4.98492431640625 0.97100830078125 4.986572265625 0.9698944091796875 4.98828125 0.9687652587890625 C 4.9908447265625 0.9670257568359375 4.99298095703125 0.965576171875 4.99560546875 0.963836669921875 C 4.9970703125 0.9628753662109375 4.99835205078125 0.962005615234375 4.99981689453125 0.961029052734375 C 5.00189208984375 0.9596099853515625 5.00439453125 0.95794677734375 5.00653076171875 0.9565277099609375 C 5.00823974609375 0.955413818359375 5.0096435546875 0.9544677734375 5.01129150390625 0.953338623046875 C 5.013427734375 0.951934814453125 5.015380859375 0.950653076171875 5.0174560546875 0.949249267578125 C 5.019287109375 0.9480438232421875 5.021240234375 0.946746826171875 5.0230712890625 0.9455413818359375 C 5.02496337890625 0.9442901611328125 5.02734375 0.9427032470703125 5.02923583984375 0.94146728515625 C 5.03082275390625 0.9404296875 5.032470703125 0.939300537109375 5.0340576171875 0.938262939453125 C 5.03643798828125 0.93670654296875 5.03839111328125 0.9354095458984375 5.040771484375 0.9338531494140625 C 5.04241943359375 0.9327392578125 5.04412841796875 0.931640625 5.0457763671875 0.9305267333984375 C 5.04791259765625 0.92913818359375 5.0499267578125 0.9278106689453125 5.05206298828125 0.926422119140625 C 5.05377197265625 0.9253082275390625 5.05548095703125 0.9241790771484375 5.05718994140625 0.923065185546875 C 5.05908203125 0.9218292236328125 5.06146240234375 0.9202728271484375 5.0633544921875 0.919036865234375 C 5.065185546875 0.9178466796875 5.06695556640625 0.91668701171875 5.06878662109375 0.9155120849609375 C 5.0711669921875 0.913970947265625 5.07330322265625 0.9125823974609375 5.07562255859375 0.911041259765625 C 5.07684326171875 0.9102630615234375 5.078125 0.909423828125 5.079345703125 0.90863037109375 C 5.08221435546875 0.9067840576171875 5.08477783203125 0.9051361083984375 5.08758544921875 0.903289794921875 C 5.08868408203125 0.902587890625 5.08978271484375 0.9019012451171875 5.0908203125 0.9011993408203125 C 5.09368896484375 0.8993682861328125 5.09625244140625 0.8977203369140625 5.09906005859375 0.8958892822265625 C 5.10003662109375 0.8952789306640625 5.10107421875 0.8946075439453125 5.10205078125 0.89398193359375 C 5.10491943359375 0.89215087890625 5.1077880859375 0.8903045654296875 5.11065673828125 0.8884735107421875 C 5.11163330078125 0.887847900390625 5.112548828125 0.8872528076171875 5.113525390625 0.886627197265625 C 5.11663818359375 0.8846588134765625 5.119384765625 0.8828887939453125 5.12249755859375 0.88092041015625 C 5.12322998046875 0.880462646484375 5.123779296875 0.880096435546875 5.12451171875 0.879638671875 C 5.1278076171875 0.8775177001953125 5.13055419921875 0.875762939453125 5.1339111328125 0.8736572265625 C 5.1346435546875 0.8731842041015625 5.1353759765625 0.8727264404296875 5.1361083984375 0.8722686767578125 C 5.13922119140625 0.87030029296875 5.14239501953125 0.8682708740234375 5.1455078125 0.8663330078125 C 5.1461181640625 0.865936279296875 5.14666748046875 0.865570068359375 5.14727783203125 0.8651885986328125 C 5.150634765625 0.8630828857421875 5.15350341796875 0.8612823486328125 5.15679931640625 0.8591766357421875 C 5.15753173828125 0.8587188720703125 5.15826416015625 0.8582763671875 5.15899658203125 0.8578033447265625 C 5.162109375 0.855865478515625 5.16552734375 0.8537139892578125 5.16864013671875 0.851776123046875 C 5.16900634765625 0.8515472412109375 5.16943359375 0.8512725830078125 5.1697998046875 0.851043701171875 C 5.17340087890625 0.84881591796875 5.1768798828125 0.84661865234375 5.18048095703125 0.844390869140625 C 5.18060302734375 0.8443145751953125 5.1805419921875 0.8443450927734375 5.1806640625 0.844268798828125 C 5.18829345703125 0.8395233154296875 5.19561767578125 0.8349761962890625 5.20330810546875 0.83026123046875 C 5.20355224609375 0.8301239013671875 5.20355224609375 0.8300933837890625 5.20379638671875 0.8299407958984375 C 5.538818359375 0.623382568359375 5.88433837890625 0.4529876708984375 6.2388916015625 0.3213653564453125 Z"/></g></svg>